<svg width="140" height="42" viewBox="0 0 140 42" fill="none" xmlns="http://www.w3.org/2000/svg">
<g clip-path="url(#clip0_25_31)">
<path d="M30.7473 39.9293C29.9789 39.9293 29.2763 39.743 28.6394 39.3706C28.0095 38.9981 27.5076 38.4993 27.1338 37.8741C26.7669 37.2422 26.5835 36.5405 26.5835 35.769L26.6042 29.3938C26.6042 28.6356 26.7842 27.9505 27.1442 27.3386C27.5041 26.72 27.9991 26.2245 28.629 25.852C29.2659 25.473 29.972 25.2834 30.7473 25.2834C31.5365 25.2834 32.2391 25.4663 32.8552 25.8321C33.4782 26.1979 33.9732 26.6934 34.3401 27.3186C34.7139 27.9372 34.9008 28.6289 34.9008 29.3938V30.3316C34.9008 30.3849 34.8732 30.4114 34.8177 30.4114H32.4295C32.3741 30.4114 32.3464 30.3849 32.3464 30.3316V29.3938C32.3464 28.9415 32.1941 28.5524 31.8896 28.2265C31.585 27.9006 31.2042 27.7377 30.7473 27.7377C30.242 27.7377 29.8544 27.904 29.5843 28.2365C29.3144 28.569 29.1794 28.9548 29.1794 29.3938V35.769C29.1794 36.2678 29.3317 36.6769 29.6363 36.9961C29.9408 37.3087 30.3112 37.465 30.7473 37.465C31.2042 37.465 31.585 37.2921 31.8896 36.9462C32.1941 36.5937 32.3464 36.2013 32.3464 35.769V34.8212C32.3464 34.7679 32.3741 34.7413 32.4295 34.7413H34.8385C34.8939 34.7413 34.9216 34.7679 34.9216 34.8212V35.769C34.9216 36.5338 34.7347 37.2322 34.3609 37.8641C33.9801 38.4893 33.4782 38.9914 32.8552 39.3706C32.2322 39.743 31.5296 39.9293 30.7473 39.9293ZM38.9609 39.7297H36.5519C36.4964 39.7297 36.4687 39.6965 36.4687 39.63L36.4895 25.5927C36.4895 25.5394 36.5241 25.5129 36.5934 25.5129H38.9609C39.0301 25.5129 39.0647 25.5394 39.0647 25.5927L39.0439 31.1497H42.2317V25.5927C42.2317 25.5394 42.2594 25.5129 42.3148 25.5129H44.6822C44.7515 25.5129 44.7861 25.5394 44.7861 25.5927L44.8276 39.63C44.8276 39.6965 44.793 39.7297 44.7238 39.7297H42.3356C42.2663 39.7297 42.2317 39.6965 42.2317 39.63V33.624H39.0439V39.63C39.0439 39.6965 39.0162 39.7297 38.9609 39.7297ZM50.4764 39.9293C49.7287 39.9293 49.0365 39.743 48.3996 39.3706C47.7628 38.9981 47.2539 38.4993 46.8732 37.8741C46.4994 37.2422 46.3125 36.5538 46.3125 35.8089L46.354 25.5927C46.354 25.5394 46.3817 25.5129 46.4371 25.5129H48.8254C48.8807 25.5129 48.9084 25.5394 48.9084 25.5927V35.8089C48.9084 36.2678 49.0607 36.6602 49.3653 36.9861C49.6699 37.3054 50.0402 37.465 50.4764 37.465C50.9333 37.465 51.314 37.3054 51.6186 36.9861C51.9231 36.6602 52.0754 36.2678 52.0754 35.8089V25.5927C52.0754 25.5394 52.1031 25.5129 52.1585 25.5129H54.5468C54.6022 25.5129 54.6299 25.5394 54.6299 25.5927L54.6714 35.8089C54.6714 36.5604 54.4845 37.2522 54.1107 37.884C53.7299 38.5092 53.2246 39.0081 52.5947 39.3806C51.9647 39.7464 51.2586 39.9293 50.4764 39.9293ZM58.8352 39.7297H56.4262C56.3708 39.7297 56.3432 39.6965 56.3432 39.63L56.3847 25.5927C56.3847 25.5394 56.4124 25.5129 56.4678 25.5129H60.7665C61.5351 25.5129 62.241 25.6924 62.8848 26.0516C63.5287 26.4107 64.0409 26.8929 64.4219 27.4982C64.8094 28.1035 65.0032 28.7886 65.0032 29.5534C65.0032 30.0523 64.9234 30.5046 64.7645 30.9102C64.605 31.316 64.4184 31.6585 64.2039 31.9379C63.996 32.2172 63.8058 32.4234 63.6327 32.5564C64.4006 33.3745 64.7852 34.3356 64.7852 35.4397L64.8059 39.63C64.8059 39.6965 64.771 39.7297 64.7019 39.7297H62.293C62.2374 39.7297 62.2097 39.7098 62.2097 39.6699V35.4397C62.2097 34.9475 62.0301 34.5219 61.6697 34.1627C61.31 33.8035 60.867 33.624 60.3406 33.624H58.9391L58.9183 39.63C58.9183 39.6965 58.8907 39.7297 58.8352 39.7297ZM60.7665 27.9571H58.9391V31.1697H60.7665C61.2025 31.1697 61.5906 31.0134 61.9297 30.7008C62.2758 30.3881 62.4489 30.0057 62.4489 29.5534C62.4489 29.1211 62.2829 28.7486 61.9503 28.4361C61.6184 28.1168 61.2238 27.9571 60.7665 27.9571ZM69.1151 39.7297H66.7062C66.6371 39.7297 66.6022 39.6965 66.6022 39.63L66.6229 25.5927C66.6229 25.5394 66.6507 25.5129 66.7062 25.5129H69.0945C69.15 25.5129 69.1772 25.5394 69.1772 25.5927L69.1984 39.63C69.1984 39.6965 69.1707 39.7297 69.1151 39.7297ZM78.0243 39.7297H71.1502C71.0952 39.7297 71.0675 39.6965 71.0675 39.63L71.0881 25.6126C71.0881 25.5461 71.1224 25.5129 71.1921 25.5129H73.5591C73.6288 25.5129 73.6631 25.5461 73.6631 25.6126L73.6424 37.2156H78.0243C78.0935 37.2156 78.1283 37.2488 78.1283 37.3154V39.63C78.1283 39.6965 78.0935 39.7297 78.0243 39.7297ZM83.4548 39.9293C82.7005 39.9293 82.0046 39.743 81.3678 39.3706C80.7381 38.9981 80.2289 38.5026 79.8414 37.884C79.461 37.2588 79.2702 36.5738 79.2702 35.8288L79.2914 29.3539C79.2914 28.5957 79.4816 27.9139 79.8621 27.3086C80.236 26.6967 80.7416 26.2079 81.3784 25.842C82.0152 25.4696 82.7075 25.2834 83.4548 25.2834C84.2304 25.2834 84.9263 25.4663 85.5424 25.8321C86.165 26.1979 86.6636 26.6901 87.0375 27.3086C87.4179 27.9206 87.6087 28.6023 87.6087 29.3539L87.6294 35.8288C87.6294 36.5738 87.4422 37.2555 87.0688 37.8741C86.6878 38.4993 86.1827 38.9981 85.5524 39.3706C84.9227 39.743 84.2233 39.9293 83.4548 39.9293ZM83.4548 37.465C83.8843 37.465 84.2582 37.2987 84.5766 36.9662C84.895 36.627 85.0539 36.2478 85.0539 35.8288L85.0332 29.3539C85.0332 28.9016 84.8843 28.5191 84.5866 28.2066C84.2889 27.894 83.912 27.7377 83.4548 27.7377C83.0189 27.7377 82.6449 27.8906 82.3336 28.1966C82.0223 28.5026 81.8664 28.8883 81.8664 29.3539V35.8288C81.8664 36.2744 82.0223 36.6602 82.3336 36.9861C82.6449 37.3054 83.0189 37.465 83.4548 37.465ZM94.2023 39.7297H91.6268C91.5648 39.7297 91.5299 39.6965 91.5234 39.63L88.5846 25.5927C88.571 25.5394 88.5982 25.5129 88.6679 25.5129H91.0768C91.1318 25.5129 91.1666 25.5394 91.1802 25.5927L92.9252 34.9509L94.6276 25.5927C94.6418 25.5394 94.6761 25.5129 94.7316 25.5129H97.1098C97.1854 25.5129 97.2132 25.5394 97.1925 25.5927L94.3057 39.63C94.2992 39.6965 94.2643 39.7297 94.2023 39.7297ZM108.241 41.8747H98.5216C98.4661 41.8747 98.4389 41.8481 98.4389 41.7949V39.7098C98.4389 39.6566 98.4661 39.63 98.5216 39.63H108.241C108.296 39.63 108.324 39.6566 108.324 39.7098V41.7949C108.324 41.8481 108.296 41.8747 108.241 41.8747Z" fill="white"/>
<path d="M112.561 39.7297H110.172C110.103 39.7297 110.068 39.6965 110.068 39.63L110.11 25.5927C110.11 25.5394 110.137 25.5129 110.193 25.5129H114.284C115.586 25.5129 116.614 25.8953 117.368 26.6602C118.13 27.4184 118.51 28.4527 118.51 29.763C118.51 30.7207 118.313 31.5555 117.918 32.2671C117.517 32.9722 116.998 33.5175 116.361 33.9033C115.724 34.2891 115.032 34.482 114.284 34.482H112.665V39.63C112.665 39.6965 112.63 39.7297 112.561 39.7297ZM114.284 27.9372L112.665 27.9571V32.0077H114.284C114.734 32.0077 115.125 31.8015 115.457 31.3892C115.79 30.9701 115.956 30.428 115.956 29.763C115.956 29.2309 115.807 28.7952 115.509 28.456C115.212 28.1101 114.804 27.9372 114.284 27.9372ZM122.28 39.7297H119.871C119.815 39.7297 119.787 39.6965 119.787 39.63L119.829 25.5927C119.829 25.5394 119.857 25.5129 119.912 25.5129H124.211C124.979 25.5129 125.686 25.6924 126.329 26.0516C126.973 26.4107 127.485 26.8929 127.866 27.4982C128.254 28.1035 128.447 28.7886 128.447 29.5534C128.447 30.0523 128.368 30.5046 128.209 30.9102C128.05 31.316 127.863 31.6585 127.648 31.9379C127.44 32.2172 127.25 32.4234 127.077 32.5564C127.845 33.3745 128.229 34.3356 128.229 35.4397L128.25 39.63C128.25 39.6965 128.216 39.7297 128.147 39.7297H125.737C125.682 39.7297 125.654 39.7098 125.654 39.6699V35.4397C125.654 34.9475 125.474 34.5219 125.115 34.1627C124.754 33.8035 124.311 33.624 123.785 33.624H122.384L122.363 39.63C122.363 39.6965 122.335 39.7297 122.28 39.7297ZM124.211 27.9571H122.384V31.1697H124.211C124.647 31.1697 125.035 31.0134 125.374 30.7008C125.72 30.3881 125.893 30.0057 125.893 29.5534C125.893 29.1211 125.727 28.7486 125.395 28.4361C125.063 28.1168 124.668 27.9571 124.211 27.9571ZM133.982 39.9293C133.227 39.9293 132.532 39.743 131.895 39.3706C131.265 38.9981 130.756 38.5026 130.368 37.884C129.988 37.2588 129.798 36.5738 129.798 35.8288L129.818 29.3539C129.818 28.5957 130.009 27.9139 130.389 27.3086C130.763 26.6967 131.269 26.2079 131.905 25.842C132.542 25.4696 133.235 25.2834 133.982 25.2834C134.757 25.2834 135.453 25.4663 136.069 25.8321C136.692 26.1979 137.191 26.6901 137.564 27.3086C137.945 27.9206 138.136 28.6023 138.136 29.3539L138.156 35.8288C138.156 36.5738 137.969 37.2555 137.596 37.8741C137.215 38.4993 136.71 38.9981 136.079 39.3706C135.45 39.743 134.75 39.9293 133.982 39.9293ZM133.982 37.465C134.411 37.465 134.785 37.2987 135.104 36.9662C135.422 36.627 135.581 36.2478 135.581 35.8288L135.56 29.3539C135.56 28.9016 135.411 28.5191 135.114 28.2066C134.816 27.894 134.439 27.7377 133.982 27.7377C133.546 27.7377 133.172 27.8906 132.861 28.1966C132.549 28.5026 132.393 28.8883 132.393 29.3539V35.8288C132.393 36.2744 132.549 36.6602 132.861 36.9861C133.172 37.3054 133.546 37.465 133.982 37.465Z" fill="#FF0000"/>
<path d="M35.4131 1.86731C36.2401 1.86731 36.8426 2.02339 37.2207 2.33555C37.5987 2.64771 37.7878 3.08758 37.7878 3.65515C37.7878 3.90488 37.7435 4.14609 37.6549 4.3788C37.5722 4.60582 37.4333 4.81015 37.2384 4.99177C37.0435 5.17339 36.7836 5.31812 36.4587 5.42596C36.1338 5.52812 35.735 5.5792 35.2625 5.5792H34.5359V7.94596H33.7384V1.86731H35.4131ZM35.3422 2.52285H34.5359V4.92366H35.1738C35.5755 4.92366 35.9093 4.88393 36.1751 4.80447C36.4409 4.71934 36.6388 4.58596 36.7688 4.40434C36.8987 4.22272 36.9637 3.98434 36.9637 3.6892C36.9637 3.29758 36.8338 3.00528 36.5738 2.81231C36.3139 2.61934 35.9034 2.52285 35.3422 2.52285ZM40.8311 3.29758C41.2387 3.29758 41.5873 3.38272 41.8767 3.55299C42.1721 3.72326 42.3965 3.96447 42.5501 4.27663C42.7096 4.58312 42.7894 4.94353 42.7894 5.35785V5.80907H39.5375C39.5493 6.32555 39.6852 6.72001 39.9451 6.99244C40.2109 7.2592 40.5801 7.39258 41.0527 7.39258C41.3539 7.39258 41.6198 7.36704 41.8501 7.31596C42.0864 7.2592 42.3286 7.17974 42.5767 7.07758V7.73312C42.3345 7.83528 42.0953 7.90907 41.859 7.95447C41.6227 8.00555 41.3421 8.03109 41.0172 8.03109C40.5683 8.03109 40.1695 7.94312 39.821 7.76717C39.4784 7.59123 39.2096 7.33015 39.0147 6.98393C38.8257 6.63204 38.7311 6.20353 38.7311 5.69839C38.7311 5.19893 38.8168 4.77042 38.9881 4.41285C39.1653 4.05528 39.4105 3.78001 39.7236 3.58704C40.0425 3.39407 40.4117 3.29758 40.8311 3.29758ZM40.8223 3.91055C40.4501 3.91055 40.1548 4.0269 39.9362 4.25961C39.7236 4.48663 39.5965 4.80447 39.5552 5.21312H41.9742C41.9742 4.95204 41.9328 4.72501 41.8501 4.53204C41.7674 4.33907 41.6404 4.18866 41.4691 4.08082C41.3037 3.96731 41.0881 3.91055 40.8223 3.91055ZM49.0934 3.38272V7.94596H48.3934V5.03434C48.3934 4.91515 48.3963 4.79028 48.4023 4.65974C48.4141 4.5292 48.4259 4.4015 48.4377 4.27663H48.4111L46.8605 7.94596H46.2048L44.6985 4.27663H44.6719C44.6837 4.4015 44.6896 4.5292 44.6896 4.65974C44.6955 4.79028 44.6985 4.92366 44.6985 5.05988V7.94596H43.9985V3.38272H45.0352L46.5326 7.05204L48.0567 3.38272H49.0934ZM54.7385 5.65582C54.7385 6.03609 54.6854 6.3738 54.579 6.66893C54.4786 6.95839 54.3309 7.20528 54.136 7.40961C53.947 7.61393 53.7136 7.77001 53.436 7.87785C53.1643 7.98001 52.86 8.03109 52.5233 8.03109C52.2103 8.03109 51.9208 7.98001 51.655 7.87785C51.3892 7.77001 51.1588 7.61393 50.9638 7.40961C50.7689 7.20528 50.6153 6.95839 50.5031 6.66893C50.3967 6.3738 50.3436 6.03609 50.3436 5.65582C50.3436 5.15069 50.4322 4.72501 50.6094 4.3788C50.7866 4.0269 51.0406 3.76015 51.3714 3.57853C51.7022 3.39123 52.0951 3.29758 52.5499 3.29758C52.9811 3.29758 53.3592 3.39123 53.6841 3.57853C54.0149 3.76015 54.2719 4.0269 54.455 4.3788C54.644 4.72501 54.7385 5.15069 54.7385 5.65582ZM51.1499 5.65582C51.1499 6.01339 51.1972 6.32555 51.2917 6.59231C51.3921 6.85339 51.5457 7.05488 51.7524 7.19677C51.9592 7.33866 52.2221 7.40961 52.5411 7.40961C52.86 7.40961 53.1229 7.33866 53.3297 7.19677C53.5364 7.05488 53.687 6.85339 53.7816 6.59231C53.882 6.32555 53.9322 6.01339 53.9322 5.65582C53.9322 5.29258 53.882 4.98326 53.7816 4.72785C53.6811 4.47244 53.5275 4.27663 53.3208 4.14042C53.12 3.99853 52.8571 3.92758 52.5322 3.92758C52.0478 3.92758 51.6963 4.08082 51.4778 4.38731C51.2592 4.6938 51.1499 5.11663 51.1499 5.65582ZM56.754 3.38272V5.28123H59.3323V3.38272H60.112V7.94596H59.3323V5.91123H56.754V7.94596H55.9743V3.38272H56.754ZM64.8945 4.01272H63.3439V7.94596H62.573V4.01272H61.0401V3.38272H64.8945V4.01272ZM66.6099 3.38272V5.28123H69.1884V3.38272H69.9682V7.94596H69.1884V5.91123H66.6099V7.94596H65.8302V3.38272H66.6099ZM75.6012 5.65582C75.6012 6.03609 75.5481 6.3738 75.4417 6.66893C75.3413 6.95839 75.1936 7.20528 74.9987 7.40961C74.8097 7.61393 74.5763 7.77001 74.2987 7.87785C74.027 7.98001 73.7228 8.03109 73.386 8.03109C73.073 8.03109 72.7835 7.98001 72.5177 7.87785C72.2519 7.77001 72.0215 7.61393 71.8266 7.40961C71.6316 7.20528 71.478 6.95839 71.3658 6.66893C71.2595 6.3738 71.2063 6.03609 71.2063 5.65582C71.2063 5.15069 71.2949 4.72501 71.4721 4.3788C71.6493 4.0269 71.9034 3.76015 72.2342 3.57853C72.565 3.39123 72.9578 3.29758 73.4126 3.29758C73.8439 3.29758 74.2219 3.39123 74.5468 3.57853C74.8776 3.76015 75.1346 4.0269 75.3177 4.3788C75.5067 4.72501 75.6012 5.15069 75.6012 5.65582ZM72.0126 5.65582C72.0126 6.01339 72.0599 6.32555 72.1544 6.59231C72.2548 6.85339 72.4084 7.05488 72.6152 7.19677C72.8219 7.33866 73.0848 7.40961 73.4038 7.40961C73.7228 7.40961 73.9856 7.33866 74.1924 7.19677C74.3991 7.05488 74.5498 6.85339 74.6443 6.59231C74.7447 6.32555 74.7949 6.01339 74.7949 5.65582C74.7949 5.29258 74.7447 4.98326 74.6443 4.72785C74.5439 4.47244 74.3903 4.27663 74.1835 4.14042C73.9827 3.99853 73.7198 3.92758 73.3949 3.92758C72.9105 3.92758 72.559 4.08082 72.3405 4.38731C72.1219 4.6938 72.0126 5.11663 72.0126 5.65582ZM78.2211 5.48502H76.508C76.479 5.48502 76.4643 5.47393 76.4643 5.45177V4.52476C76.4643 4.50259 76.479 4.4915 76.508 4.4915H78.2211C78.25 4.4915 78.2642 4.50259 78.2642 4.52476V5.45177C78.2642 5.47393 78.25 5.48502 78.2211 5.48502ZM81.4245 8.03109C81.0051 8.03109 80.63 7.9488 80.2992 7.7842C79.9743 7.61961 79.7174 7.3642 79.5283 7.01799C79.3452 6.67177 79.2536 6.22907 79.2536 5.68988C79.2536 5.12799 79.3511 4.67109 79.5461 4.3192C79.741 3.96731 80.0039 3.70907 80.3347 3.54447C80.6714 3.37988 81.0524 3.29758 81.4777 3.29758C81.7199 3.29758 81.9532 3.32312 82.1777 3.3742C82.4022 3.41961 82.5853 3.47636 82.7271 3.54447L82.4878 4.16596C82.3461 4.11488 82.1807 4.06663 81.9916 4.02123C81.8026 3.97582 81.6254 3.95312 81.46 3.95312C81.141 3.95312 80.8781 4.01839 80.6714 4.14893C80.4646 4.27947 80.311 4.47244 80.2106 4.72785C80.1102 4.98326 80.06 5.30109 80.06 5.68136C80.06 6.04461 80.1102 6.35393 80.2106 6.60934C80.311 6.86474 80.4617 7.05772 80.6625 7.18826C80.8634 7.3188 81.1144 7.38407 81.4157 7.38407C81.6756 7.38407 81.903 7.35853 82.0979 7.30744C82.2988 7.25636 82.4819 7.19393 82.6473 7.12015V7.7842C82.4878 7.86366 82.3106 7.92326 82.1157 7.96299C81.9266 8.00839 81.6963 8.03109 81.4245 8.03109ZM87.0552 4.01272H85.5046V7.94596H84.7337V4.01272H83.2008V3.38272H87.0552V4.01272ZM90.2504 3.29758C90.8353 3.29758 91.3049 3.49339 91.6593 3.88501C92.0196 4.27663 92.1998 4.8669 92.1998 5.65582C92.1998 6.17231 92.1171 6.60934 91.9517 6.9669C91.7922 7.3188 91.5648 7.58555 91.2694 7.76717C90.98 7.94312 90.6374 8.03109 90.2416 8.03109C89.9994 8.03109 89.7838 7.99988 89.5947 7.93744C89.4057 7.87501 89.2433 7.79555 89.1074 7.69907C88.9774 7.5969 88.8652 7.48623 88.7707 7.36704H88.7175C88.7293 7.46353 88.7412 7.58555 88.753 7.73312C88.7648 7.88069 88.7707 8.00839 88.7707 8.11623V9.9892H87.9909V3.38272H88.6289L88.7353 4.0042H88.7707C88.8652 3.87366 88.9774 3.75447 89.1074 3.64663C89.2433 3.5388 89.4028 3.45366 89.5859 3.39123C89.7749 3.3288 89.9964 3.29758 90.2504 3.29758ZM90.1087 3.92758C89.7897 3.92758 89.5327 3.98717 89.3378 4.10636C89.1428 4.21988 89.0011 4.39299 88.9125 4.62569C88.8239 4.85839 88.7766 5.15353 88.7707 5.51109V5.65582C88.7707 6.03042 88.812 6.34826 88.8947 6.60934C88.9774 6.87042 89.1163 7.06907 89.3112 7.20528C89.512 7.3415 89.7838 7.40961 90.1264 7.40961C90.4158 7.40961 90.6521 7.33299 90.8352 7.17974C91.0243 7.0265 91.1631 6.81934 91.2517 6.55826C91.3462 6.2915 91.3935 5.98785 91.3935 5.64731C91.3935 5.12515 91.2871 4.70799 91.0745 4.39582C90.8677 4.08366 90.5458 3.92758 90.1087 3.92758ZM97.5712 5.65582C97.5712 6.03609 97.518 6.3738 97.4117 6.66893C97.3113 6.95839 97.1636 7.20528 96.9687 7.40961C96.7796 7.61393 96.5463 7.77001 96.2687 7.87785C95.9969 7.98001 95.6927 8.03109 95.356 8.03109C95.0429 8.03109 94.7535 7.98001 94.4877 7.87785C94.2218 7.77001 93.9915 7.61393 93.7965 7.40961C93.6016 7.20528 93.448 6.95839 93.3358 6.66893C93.2294 6.3738 93.1763 6.03609 93.1763 5.65582C93.1763 5.15069 93.2649 4.72501 93.4421 4.3788C93.6193 4.0269 93.8733 3.76015 94.2041 3.57853C94.5349 3.39123 94.9277 3.29758 95.3826 3.29758C95.8138 3.29758 96.1919 3.39123 96.5168 3.57853C96.8476 3.76015 97.1045 4.0269 97.2877 4.3788C97.4767 4.72501 97.5712 5.15069 97.5712 5.65582ZM93.9826 5.65582C93.9826 6.01339 94.0299 6.32555 94.1244 6.59231C94.2248 6.85339 94.3784 7.05488 94.5851 7.19677C94.7919 7.33866 95.0547 7.40961 95.3737 7.40961C95.6927 7.40961 95.9556 7.33866 96.1623 7.19677C96.3691 7.05488 96.5197 6.85339 96.6142 6.59231C96.7147 6.32555 96.7649 6.01339 96.7649 5.65582C96.7649 5.29258 96.7147 4.98326 96.6142 4.72785C96.5138 4.47244 96.3602 4.27663 96.1535 4.14042C95.9526 3.99853 95.6898 3.92758 95.3649 3.92758C94.8805 3.92758 94.529 4.08082 94.3104 4.38731C94.0919 4.6938 93.9826 5.11663 93.9826 5.65582ZM99.5424 6.16663C99.5424 6.21772 99.5395 6.2915 99.5336 6.38799C99.5336 6.4788 99.5306 6.57812 99.5247 6.68596C99.5188 6.78812 99.5129 6.88745 99.507 6.98393C99.5011 7.07474 99.4952 7.14853 99.4893 7.20528L102.032 3.38272H102.989V7.94596H102.263V5.25569C102.263 5.16488 102.263 5.04569 102.263 4.89812C102.269 4.75055 102.274 4.60582 102.28 4.46393C102.286 4.31636 102.292 4.20569 102.298 4.1319L99.7728 7.94596H98.807V3.38272H99.5424V6.16663ZM107.779 4.01272H106.229V7.94596H105.458V4.01272H103.925V3.38272H107.779V4.01272ZM110.462 3.29758C110.87 3.29758 111.219 3.38272 111.508 3.55299C111.803 3.72326 112.028 3.96447 112.181 4.27663C112.341 4.58312 112.421 4.94353 112.421 5.35785V5.80907H109.169C109.181 6.32555 109.316 6.72001 109.576 6.99244C109.842 7.2592 110.211 7.39258 110.684 7.39258C110.985 7.39258 111.251 7.36704 111.481 7.31596C111.718 7.2592 111.96 7.17974 112.208 7.07758V7.73312C111.966 7.83528 111.727 7.90907 111.49 7.95447C111.254 8.00555 110.973 8.03109 110.648 8.03109C110.2 8.03109 109.801 7.94312 109.452 7.76717C109.11 7.59123 108.841 7.33015 108.646 6.98393C108.457 6.63204 108.362 6.20353 108.362 5.69839C108.362 5.19893 108.448 4.77042 108.619 4.41285C108.797 4.05528 109.042 3.78001 109.355 3.58704C109.674 3.39407 110.043 3.29758 110.462 3.29758ZM110.454 3.91055C110.081 3.91055 109.786 4.0269 109.567 4.25961C109.355 4.48663 109.228 4.80447 109.186 5.21312H111.605C111.605 4.95204 111.564 4.72501 111.481 4.53204C111.399 4.33907 111.272 4.18866 111.1 4.08082C110.935 3.96731 110.719 3.91055 110.454 3.91055ZM117.245 7.94596H116.456V4.0042H115.056C114.997 4.72501 114.924 5.34082 114.835 5.85163C114.746 6.35677 114.634 6.76826 114.498 7.08609C114.362 7.40393 114.2 7.63663 114.011 7.7842C113.822 7.93177 113.6 8.00555 113.346 8.00555C113.27 8.00555 113.193 7.99988 113.116 7.98853C113.045 7.98285 112.986 7.96866 112.939 7.94596V7.38407C112.974 7.39542 113.013 7.40393 113.054 7.40961C113.095 7.41528 113.137 7.41812 113.178 7.41812C113.308 7.41812 113.426 7.36704 113.532 7.26488C113.639 7.16272 113.733 7.00663 113.816 6.79663C113.905 6.58663 113.984 6.32272 114.055 6.00488C114.126 5.68136 114.188 5.30109 114.241 4.86407C114.294 4.42704 114.342 3.93326 114.383 3.38272H117.245V7.94596ZM120.941 5.25569C121.355 5.25569 121.697 5.30393 121.969 5.40042C122.241 5.4969 122.445 5.64163 122.58 5.83461C122.722 6.0219 122.793 6.26028 122.793 6.54974C122.793 6.83353 122.725 7.08042 122.589 7.29042C122.459 7.50042 122.256 7.66217 121.978 7.77569C121.7 7.8892 121.343 7.94596 120.906 7.94596H118.753V3.38272H119.532V5.25569H120.941ZM122.013 6.59231C122.013 6.3142 121.91 6.1269 121.703 6.03042C121.502 5.92826 121.219 5.87717 120.853 5.87717H119.532V7.3415H120.87C121.201 7.3415 121.473 7.28474 121.685 7.17123C121.904 7.05772 122.013 6.86474 122.013 6.59231ZM124.793 3.38272V5.28123H127.372V3.38272H128.151V7.94596H127.372V5.91123H124.793V7.94596H124.013V3.38272H124.793ZM131.454 3.30609C132.033 3.30609 132.461 3.42812 132.739 3.67217C133.017 3.91623 133.155 4.30501 133.155 4.83853V7.94596H132.588L132.438 7.29893H132.402C132.266 7.46353 132.125 7.60258 131.977 7.71609C131.835 7.82393 131.67 7.90339 131.481 7.95447C131.298 8.00555 131.073 8.03109 130.807 8.03109C130.524 8.03109 130.267 7.98285 130.036 7.88636C129.812 7.78988 129.635 7.64231 129.505 7.44366C129.375 7.23934 129.31 6.98393 129.31 6.67745C129.31 6.22339 129.496 5.87434 129.868 5.63028C130.24 5.38055 130.813 5.24434 131.587 5.22163L132.393 5.19609V4.92366C132.393 4.54339 132.308 4.27947 132.136 4.1319C131.965 3.98434 131.723 3.91055 131.41 3.91055C131.162 3.91055 130.925 3.94744 130.701 4.02123C130.477 4.08934 130.267 4.1688 130.072 4.25961L129.833 3.69771C130.039 3.58988 130.285 3.49907 130.568 3.42528C130.852 3.34582 131.147 3.30609 131.454 3.30609ZM131.685 5.74096C131.094 5.76366 130.683 5.85447 130.453 6.01339C130.228 6.17231 130.116 6.3965 130.116 6.68596C130.116 6.94136 130.196 7.12866 130.355 7.24785C130.521 7.36704 130.731 7.42663 130.985 7.42663C131.386 7.42663 131.72 7.32163 131.986 7.11163C132.252 6.89596 132.385 6.56677 132.385 6.12407V5.71542L131.685 5.74096ZM134.915 7.94596H134.011L135.366 6.03042C135.183 5.98501 135.006 5.91407 134.835 5.81758C134.664 5.71542 134.525 5.57636 134.418 5.40042C134.312 5.2188 134.259 4.99461 134.259 4.72785C134.259 4.29082 134.412 3.9588 134.72 3.73177C135.027 3.49907 135.434 3.38272 135.942 3.38272H138.069V7.94596H137.289V6.13258H136.137L134.915 7.94596ZM135.012 4.73636C135.012 4.99744 135.112 5.19326 135.313 5.3238C135.52 5.44866 135.807 5.51109 136.173 5.51109H137.289V4.0042H136.022C135.662 4.0042 135.402 4.07231 135.242 4.20853C135.089 4.34474 135.012 4.52069 135.012 4.73636ZM99.1065 13.5989H99.9571L97.928 15.7954L100.125 18.1622H99.2217L97.0774 15.8465V18.1622H96.2976V13.5989H97.0774V15.8124L99.1065 13.5989ZM104.944 15.872C104.944 16.2523 104.891 16.59 104.784 16.8851C104.684 17.1746 104.536 17.4215 104.341 17.6258C104.152 17.8301 103.919 17.9862 103.641 18.0941C103.37 18.1962 103.065 18.2473 102.729 18.2473C102.416 18.2473 102.126 18.1962 101.86 18.0941C101.595 17.9862 101.364 17.8301 101.169 17.6258C100.974 17.4215 100.821 17.1746 100.709 16.8851C100.602 16.59 100.549 16.2523 100.549 15.872C100.549 15.3669 100.638 14.9412 100.815 14.595C100.992 14.2431 101.246 13.9764 101.577 13.7947C101.908 13.6074 102.3 13.5138 102.755 13.5138C103.187 13.5138 103.565 13.6074 103.89 13.7947C104.22 13.9764 104.477 14.2431 104.66 14.595C104.849 14.9412 104.944 15.3669 104.944 15.872ZM101.355 15.872C101.355 16.2296 101.403 16.5418 101.497 16.8085C101.598 17.0696 101.751 17.2711 101.958 17.413C102.165 17.5549 102.427 17.6258 102.746 17.6258C103.065 17.6258 103.328 17.5549 103.535 17.413C103.742 17.2711 103.892 17.0696 103.987 16.8085C104.087 16.5418 104.138 16.2296 104.138 15.872C104.138 15.5088 104.087 15.1995 103.987 14.9441C103.887 14.6887 103.733 14.4929 103.526 14.3566C103.325 14.2147 103.063 14.1438 102.738 14.1438C102.253 14.1438 101.902 14.297 101.683 14.6035C101.465 14.91 101.355 15.3329 101.355 15.872ZM111.275 13.5989V18.1622H110.575V15.2506C110.575 15.1314 110.578 15.0065 110.584 14.876C110.595 14.7454 110.607 14.6177 110.619 14.4928H110.592L109.042 18.1622H108.386L106.88 14.4928H106.853C106.865 14.6177 106.871 14.7454 106.871 14.876C106.877 15.0065 106.88 15.1399 106.88 15.2761V18.1622H106.18V13.5989H107.216L108.714 17.2683L110.238 13.5989H111.275ZM116.804 13.5989V18.1622H116.025V14.2374H113.57V18.1622H112.79V13.5989H116.804ZM120.118 13.5223C120.697 13.5223 121.125 13.6443 121.403 13.8884C121.681 14.1324 121.82 14.5212 121.82 15.0547V18.1622H121.252L121.102 17.5151H121.066C120.931 17.6797 120.789 17.8188 120.641 17.9323C120.499 18.0401 120.334 18.1196 120.145 18.1707C119.962 18.2218 119.737 18.2473 119.471 18.2473C119.188 18.2473 118.931 18.1991 118.701 18.1026C118.476 18.0061 118.299 17.8585 118.169 17.6599C118.039 17.4556 117.974 17.2001 117.974 16.8937C117.974 16.4396 118.16 16.0906 118.532 15.8465C118.904 15.5968 119.477 15.4606 120.251 15.4379L121.058 15.4123V15.1399C121.058 14.7596 120.972 14.4957 120.801 14.3481C120.629 14.2006 120.387 14.1268 120.074 14.1268C119.826 14.1268 119.59 14.1637 119.365 14.2374C119.141 14.3056 118.931 14.385 118.736 14.4758L118.497 13.9139C118.704 13.8061 118.949 13.7153 119.232 13.6415C119.516 13.562 119.811 13.5223 120.118 13.5223ZM120.349 15.9572C119.758 15.9799 119.347 16.0707 119.117 16.2296C118.893 16.3885 118.78 16.6127 118.78 16.9022C118.78 17.1576 118.86 17.3449 119.02 17.4641C119.185 17.5833 119.395 17.6428 119.649 17.6428C120.05 17.6428 120.384 17.5379 120.65 17.3279C120.916 17.1122 121.049 16.783 121.049 16.3403V15.9316L120.349 15.9572ZM124.067 13.5989V15.4974H126.645V13.5989H127.425V18.1622H126.645V16.1274H124.067V18.1622H123.287V13.5989H124.067ZM129.664 16.3829C129.664 16.4339 129.661 16.5077 129.655 16.6042C129.655 16.695 129.652 16.7943 129.646 16.9022C129.64 17.0043 129.634 17.1037 129.628 17.2001C129.622 17.291 129.616 17.3647 129.611 17.4215L132.154 13.5989H133.111V18.1622H132.384V15.4719C132.384 15.3811 132.384 15.2619 132.384 15.1143C132.39 14.9668 132.396 14.822 132.402 14.6801C132.408 14.5326 132.413 14.4219 132.419 14.3481L129.894 18.1622H128.928V13.5989H129.664V16.3829ZM134.915 18.1622H134.011L135.366 16.2466C135.183 16.2012 135.006 16.1303 134.835 16.0338C134.664 15.9316 134.525 15.7926 134.418 15.6166C134.312 15.435 134.259 15.2108 134.259 14.9441C134.259 14.507 134.412 14.175 134.72 13.948C135.027 13.7153 135.434 13.5989 135.942 13.5989H138.069V18.1622H137.289V16.3488H136.137L134.915 18.1622ZM135.012 14.9526C135.012 15.2137 135.112 15.4095 135.313 15.54C135.52 15.6649 135.807 15.7273 136.173 15.7273H137.289V14.2204H136.022C135.662 14.2204 135.402 14.2885 135.242 14.4247C135.089 14.561 135.012 14.7369 135.012 14.9526Z" fill="white"/>
<path d="M20.7984 1.51885C19.9962 3.0188 19.0938 4.67026 16.2863 9.80644C15.699 10.8822 14.725 12.6548 14.1377 13.7457C13.5361 14.8215 12.4475 16.8366 11.7027 18.2153C10.9435 19.594 9.88355 21.5637 9.31056 22.5788C8.75192 23.6091 8.29358 24.4878 8.29358 24.5181C8.29358 24.5484 9.8692 24.5787 11.7886 24.5787H15.2837L16.4725 22.4121C17.1171 21.2303 18.5638 18.594 19.6811 16.5487C20.784 14.5033 22.4886 11.3822 23.4625 9.60949C25.0096 6.79141 25.2101 6.32174 25.0812 6.01872C24.895 5.59447 21.9156 0.155258 21.7867 0.00374731C21.7294 -0.0568566 21.2853 0.624938 20.7984 1.51885Z" fill="white"/>
<path d="M24.15 10.5337C23.2333 12.2155 21.0131 16.2911 19.2083 19.5789L15.9425 25.5635L11.7886 25.609L7.63463 25.6393L5.81547 28.9725C4.8128 30.7907 3.99634 32.336 3.99634 32.3815C3.99634 32.427 5.80115 32.4573 8.00702 32.4573C10.7859 32.4573 12.0177 32.5027 12.0177 32.6239C12.0177 32.7148 11.545 33.6542 10.9578 34.6996C8.92375 38.4116 8.29352 39.5933 8.29352 39.654C8.29352 39.6994 9.95509 39.7297 11.989 39.7297H15.6703L17.3462 36.6541C18.2629 34.9723 19.8099 32.1239 20.7839 30.3361C21.7723 28.5483 23.8206 24.7908 25.339 22.003C26.8573 19.2152 28.4329 16.3517 28.8196 15.6396C29.2064 14.9275 29.5358 14.276 29.5358 14.2003C29.5358 14.0487 26.1411 7.8065 25.9262 7.57925C25.8832 7.51869 25.0811 8.83681 24.15 10.5337Z" fill="#FF0000"/>
<path d="M3.1799 33.8512C3.12261 33.9572 2.37777 35.3056 1.53266 36.851L0 39.654L3.39476 39.6994C5.25687 39.7146 6.84683 39.6994 6.93278 39.6691C7.01873 39.6388 7.66326 38.5631 8.36515 37.2904C9.05268 36.0026 9.78322 34.6693 9.96942 34.3057L10.3275 33.6693H6.81818C4.15393 33.6693 3.26585 33.7148 3.1799 33.8512Z" fill="white"/>
</g>
<defs>
<clipPath id="clip0_25_31">
<rect width="140" height="42" fill="white"/>
</clipPath>
</defs>
</svg>
