<svg width="115" height="43" viewBox="0 0 115 43" fill="none" xmlns="http://www.w3.org/2000/svg">
<g clip-path="url(#clip0_25_38)">
<path d="M25.2567 40.88C24.6255 40.88 24.0484 40.6893 23.5252 40.308C23.0078 39.9266 22.5955 39.4159 22.2885 38.7758C21.9871 38.1289 21.8364 37.4105 21.8364 36.6206L21.8535 30.0937C21.8535 29.3174 22.0013 28.616 22.297 27.9895C22.5927 27.3562 22.9992 26.8489 23.5167 26.4676C24.0399 26.0795 24.6199 25.8854 25.2567 25.8854C25.905 25.8854 26.4821 26.0726 26.9882 26.4472C27.5 26.8217 27.9065 27.329 28.2079 27.9691C28.515 28.6024 28.6685 29.3106 28.6685 30.0937V31.0538C28.6685 31.1083 28.6458 31.1355 28.6003 31.1355H26.6385C26.593 31.1355 26.5703 31.1083 26.5703 31.0538V30.0937C26.5703 29.6306 26.4452 29.2322 26.195 28.8986C25.9448 28.5649 25.632 28.3981 25.2567 28.3981C24.8416 28.3981 24.5232 28.5683 24.3014 28.9088C24.0797 29.2493 23.9688 29.6442 23.9688 30.0937V36.6206C23.9688 37.1313 24.0939 37.5501 24.3441 37.877C24.5942 38.197 24.8985 38.3571 25.2567 38.3571C25.632 38.3571 25.9448 38.18 26.195 37.8259C26.4452 37.465 26.5703 37.0632 26.5703 36.6206V35.6503C26.5703 35.5958 26.593 35.5685 26.6385 35.5685H28.6174C28.6628 35.5685 28.6856 35.5958 28.6856 35.6503V36.6206C28.6856 37.4037 28.532 38.1187 28.225 38.7656C27.9122 39.4057 27.5 39.9198 26.9882 40.308C26.4765 40.6893 25.8993 40.88 25.2567 40.88ZM32.0035 40.6757H30.0247C29.9792 40.6757 29.9564 40.6416 29.9564 40.5735L29.9735 26.202C29.9735 26.1475 30.002 26.1203 30.0588 26.1203H32.0035C32.0604 26.1203 32.0888 26.1475 32.0888 26.202L32.0718 31.8914H34.6903V26.202C34.6903 26.1475 34.7131 26.1203 34.7585 26.1203H36.7033C36.7601 26.1203 36.7886 26.1475 36.7886 26.202L36.8227 40.5735C36.8227 40.6416 36.7942 40.6757 36.7374 40.6757H34.7756C34.7188 40.6757 34.6903 40.6416 34.6903 40.5735V34.4245H32.0718V40.5735C32.0718 40.6416 32.049 40.6757 32.0035 40.6757ZM41.4627 40.88C40.8486 40.88 40.28 40.6893 39.7568 40.308C39.2337 39.9266 38.8157 39.4159 38.503 38.7758C38.1959 38.1289 38.0424 37.4241 38.0424 36.6615L38.0765 26.202C38.0765 26.1475 38.0993 26.1203 38.1447 26.1203H40.1065C40.152 26.1203 40.1748 26.1475 40.1748 26.202V36.6615C40.1748 37.1313 40.2998 37.5331 40.5501 37.8667C40.8003 38.1936 41.1045 38.3571 41.4627 38.3571C41.838 38.3571 42.1508 38.1936 42.4009 37.8667C42.6511 37.5331 42.7762 37.1313 42.7762 36.6615V26.202C42.7762 26.1475 42.799 26.1203 42.8445 26.1203H44.8062C44.8518 26.1203 44.8745 26.1475 44.8745 26.202L44.9086 36.6615C44.9086 37.4309 44.7551 38.1392 44.448 38.786C44.1353 39.4261 43.7202 39.9368 43.2027 40.3182C42.6853 40.6927 42.1053 40.88 41.4627 40.88ZM48.3289 40.6757H46.3501C46.3046 40.6757 46.2819 40.6416 46.2819 40.5735L46.316 26.202C46.316 26.1475 46.3387 26.1203 46.3842 26.1203H49.9154C50.5466 26.1203 51.1265 26.3042 51.6554 26.6719C52.1843 27.0396 52.605 27.5333 52.918 28.1529C53.2363 28.7726 53.3954 29.474 53.3954 30.2571C53.3954 30.7678 53.3299 31.2309 53.1994 31.6462C53.0684 32.0616 52.9151 32.4123 52.7389 32.6983C52.5681 32.9843 52.4119 33.1954 52.2697 33.3316C52.9005 34.1692 53.2164 35.1532 53.2164 36.2835L53.2334 40.5735C53.2334 40.6416 53.2047 40.6757 53.148 40.6757H51.1692C51.1236 40.6757 51.1008 40.6552 51.1008 40.6144V36.2835C51.1008 35.7796 50.9533 35.3438 50.6573 34.9761C50.3618 34.6084 49.9978 34.4245 49.5655 34.4245H48.4142L48.3972 40.5735C48.3972 40.6416 48.3744 40.6757 48.3289 40.6757ZM49.9154 28.6228H48.4142V31.9118H49.9154C50.2735 31.9118 50.5922 31.7518 50.8708 31.4317C51.1551 31.1117 51.2973 30.7201 51.2973 30.2571C51.2973 29.8145 51.1609 29.4331 50.8878 29.1131C50.6151 28.7862 50.2909 28.6228 49.9154 28.6228ZM56.7731 40.6757H54.7944C54.7376 40.6757 54.709 40.6416 54.709 40.5735L54.7259 26.202C54.7259 26.1475 54.7487 26.1203 54.7944 26.1203H56.7562C56.8018 26.1203 56.8241 26.1475 56.8241 26.202L56.8416 40.5735C56.8416 40.6416 56.8187 40.6757 56.7731 40.6757ZM64.0914 40.6757H58.4448C58.3996 40.6757 58.3768 40.6416 58.3768 40.5735L58.3938 26.2225C58.3938 26.1544 58.422 26.1203 58.4792 26.1203H60.4235C60.4808 26.1203 60.5089 26.1544 60.5089 26.2225L60.492 38.1017H64.0914C64.1482 38.1017 64.1768 38.1357 64.1768 38.2038V40.5735C64.1768 40.6416 64.1482 40.6757 64.0914 40.6757ZM68.5521 40.88C67.9325 40.88 67.3609 40.6893 66.8378 40.308C66.3206 39.9266 65.9023 39.4193 65.584 38.786C65.2715 38.146 65.1148 37.4446 65.1148 36.6819L65.1322 30.0528C65.1322 29.2765 65.2885 28.5785 65.601 27.9588C65.9081 27.3324 66.3235 26.8319 66.8466 26.4573C67.3696 26.076 67.9383 25.8854 68.5521 25.8854C69.1893 25.8854 69.7609 26.0726 70.267 26.4472C70.7784 26.8217 71.1879 27.3256 71.4951 27.9588C71.8076 28.5854 71.9643 29.2833 71.9643 30.0528L71.9813 36.6819C71.9813 37.4446 71.8275 38.1425 71.5208 38.7758C71.2078 39.4159 70.7929 39.9266 70.2752 40.308C69.7579 40.6893 69.1834 40.88 68.5521 40.88ZM68.5521 38.3571C68.9049 38.3571 69.2121 38.1868 69.4736 37.8463C69.7351 37.499 69.8657 37.1109 69.8657 36.6819L69.8487 30.0528C69.8487 29.5898 69.7264 29.1982 69.4818 28.8782C69.2373 28.5581 68.9277 28.3981 68.5521 28.3981C68.194 28.3981 67.8869 28.5547 67.6312 28.8679C67.3755 29.1812 67.2474 29.5761 67.2474 30.0528V36.6819C67.2474 37.1381 67.3755 37.5331 67.6312 37.8667C67.8869 38.1936 68.194 38.3571 68.5521 38.3571ZM77.3805 40.6757H75.2648C75.2139 40.6757 75.1853 40.6416 75.1799 40.5735L72.7659 26.202C72.7547 26.1475 72.7771 26.1203 72.8343 26.1203H74.8131C74.8582 26.1203 74.8868 26.1475 74.898 26.202L76.3314 35.783L77.7298 26.202C77.7415 26.1475 77.7696 26.1203 77.8152 26.1203H79.7688C79.8309 26.1203 79.8537 26.1475 79.8367 26.202L77.4654 40.5735C77.46 40.6416 77.4314 40.6757 77.3805 40.6757ZM88.912 42.8718H80.9285C80.8829 42.8718 80.8605 42.8445 80.8605 42.7901V40.6552C80.8605 40.6008 80.8829 40.5735 80.9285 40.5735H88.912C88.9576 40.5735 88.9804 40.6008 88.9804 40.6552V42.7901C88.9804 42.8445 88.9576 42.8718 88.912 42.8718Z" fill="black"/>
<path d="M92.4605 40.6757H90.4987C90.442 40.6757 90.4133 40.6416 90.4133 40.5735L90.4473 26.202C90.4473 26.1475 90.4701 26.1203 90.5157 26.1203H93.8764C94.9454 26.1203 95.7897 26.5118 96.4098 27.295C97.0353 28.0712 97.3478 29.1301 97.3478 30.4716C97.3478 31.4522 97.1857 32.3068 96.8616 33.0354C96.5316 33.7572 96.1056 34.3156 95.582 34.7105C95.0589 35.1055 94.4902 35.303 93.8764 35.303H92.5459V40.5735C92.5459 40.6416 92.5173 40.6757 92.4605 40.6757ZM93.8764 28.6024L92.5459 28.6228V32.7698H93.8764C94.2462 32.7698 94.5674 32.5587 94.8401 32.1365C95.1133 31.7075 95.2496 31.1525 95.2496 30.4716C95.2496 29.9269 95.1274 29.4808 94.8828 29.1335C94.6382 28.7794 94.3029 28.6024 93.8764 28.6024ZM100.444 40.6757H98.4653C98.4197 40.6757 98.3969 40.6416 98.3969 40.5735L98.4313 26.202C98.4313 26.1475 98.4536 26.1203 98.4992 26.1203H102.03C102.662 26.1203 103.242 26.3042 103.77 26.6719C104.299 27.0396 104.72 27.5333 105.033 28.1529C105.351 28.7726 105.51 29.474 105.51 30.2571C105.51 30.7678 105.445 31.2309 105.314 31.6462C105.184 32.0616 105.03 32.4123 104.854 32.6983C104.683 32.9843 104.527 33.1954 104.385 33.3316C105.016 34.1692 105.331 35.1532 105.331 36.2835L105.348 40.5735C105.348 40.6416 105.32 40.6757 105.263 40.6757H103.284C103.239 40.6757 103.216 40.6552 103.216 40.6144V36.2835C103.216 35.7796 103.068 35.3438 102.773 34.9761C102.477 34.6084 102.113 34.4245 101.681 34.4245H100.529L100.512 40.5735C100.512 40.6416 100.49 40.6757 100.444 40.6757ZM102.03 28.6228H100.529V31.9118H102.03C102.389 31.9118 102.707 31.7518 102.986 31.4317C103.27 31.1117 103.412 30.7201 103.412 30.2571C103.412 29.8145 103.276 29.4331 103.003 29.1131C102.73 28.7862 102.406 28.6228 102.03 28.6228ZM110.056 40.88C109.437 40.88 108.865 40.6893 108.342 40.308C107.825 39.9266 107.407 39.4193 107.088 38.786C106.776 38.146 106.62 37.4446 106.62 36.6819L106.637 30.0528C106.637 29.2765 106.793 28.5785 107.105 27.9588C107.412 27.3324 107.828 26.8319 108.351 26.4573C108.874 26.076 109.443 25.8854 110.056 25.8854C110.694 25.8854 111.265 26.0726 111.771 26.4472C112.283 26.8217 112.692 27.3256 112.999 27.9588C113.312 28.5854 113.469 29.2833 113.469 30.0528L113.486 36.6819C113.486 37.4446 113.332 38.1425 113.025 38.7758C112.712 39.4159 112.297 39.9266 111.78 40.308C111.262 40.6893 110.688 40.88 110.056 40.88ZM110.056 38.3571C110.409 38.3571 110.716 38.1868 110.978 37.8463C111.239 37.499 111.371 37.1109 111.371 36.6819L111.353 30.0528C111.353 29.5898 111.231 29.1982 110.987 28.8782C110.742 28.5581 110.432 28.3981 110.056 28.3981C109.698 28.3981 109.391 28.5547 109.136 28.8679C108.88 29.1812 108.752 29.5761 108.752 30.0528V36.6819C108.752 37.1381 108.88 37.5331 109.136 37.8667C109.391 38.1936 109.698 38.3571 110.056 38.3571Z" fill="#FF0000"/>
<path d="M29.0893 1.91174C29.7686 1.91174 30.2635 2.07154 30.5741 2.39113C30.8846 2.71073 31.0399 3.16107 31.0399 3.74215C31.0399 3.99782 31.0035 4.24478 30.9307 4.48303C30.8628 4.71546 30.7487 4.92465 30.5886 5.11059C30.4285 5.29654 30.215 5.44472 29.9481 5.55512C29.6812 5.65972 29.3537 5.71201 28.9655 5.71201H28.3687V8.13512H27.7136V1.91174H29.0893ZM29.031 2.58289H28.3687V5.04086H28.8927C29.2227 5.04086 29.4969 5.00019 29.7152 4.91884C29.9336 4.83168 30.0961 4.69512 30.2029 4.50918C30.3096 4.32323 30.363 4.07918 30.363 3.77701C30.363 3.37607 30.2562 3.07681 30.0427 2.87924C29.8292 2.68168 29.492 2.58289 29.031 2.58289ZM33.5398 3.37607C33.8746 3.37607 34.1609 3.46323 34.3987 3.63755C34.6413 3.81188 34.8257 4.05884 34.9518 4.37843C35.0828 4.69222 35.1484 5.0612 35.1484 5.48539V5.94735H32.4771C32.4868 6.47613 32.5985 6.87999 32.812 7.15891C33.0303 7.43201 33.3336 7.56857 33.7218 7.56857C33.9692 7.56857 34.1876 7.54242 34.3768 7.49012C34.5709 7.43201 34.7699 7.35066 34.9737 7.24607V7.91722C34.7747 8.02181 34.5782 8.09735 34.3841 8.14384C34.19 8.19614 33.9595 8.22228 33.6927 8.22228C33.3239 8.22228 32.9963 8.13222 32.7101 7.95208C32.4286 7.77195 32.2078 7.50465 32.0477 7.15019C31.8924 6.78992 31.8148 6.3512 31.8148 5.83404C31.8148 5.32269 31.8852 4.88397 32.0259 4.51789C32.1714 4.15181 32.3728 3.86999 32.63 3.67242C32.892 3.47485 33.1953 3.37607 33.5398 3.37607ZM33.5325 4.00364C33.2268 4.00364 32.9842 4.12276 32.8047 4.361C32.63 4.59343 32.5257 4.91884 32.4917 5.33722H34.4787C34.4787 5.06992 34.4448 4.83749 34.3768 4.63992C34.3089 4.44235 34.2046 4.28836 34.0639 4.17796C33.928 4.06174 33.7509 4.00364 33.5325 4.00364ZM40.3266 3.46323V8.13512H39.7516V5.15418C39.7516 5.03215 39.7541 4.90431 39.7589 4.77066C39.7686 4.63701 39.7783 4.50627 39.788 4.37843H39.7662L38.4925 8.13512H37.9539L36.7165 4.37843H36.6947C36.7044 4.50627 36.7092 4.63701 36.7092 4.77066C36.7141 4.90431 36.7165 5.04086 36.7165 5.18032V8.13512H36.1415V3.46323H36.9931L38.2232 7.21992L39.4751 3.46323H40.3266ZM44.9637 5.79046C44.9637 6.17978 44.9201 6.52553 44.8327 6.82769C44.7502 7.12404 44.6289 7.37681 44.4688 7.586C44.3135 7.79519 44.1218 7.95499 43.8938 8.06539C43.6706 8.16999 43.4207 8.22228 43.1441 8.22228C42.8869 8.22228 42.6492 8.16999 42.4308 8.06539C42.2125 7.95499 42.0232 7.79519 41.8631 7.586C41.703 7.37681 41.5768 7.12404 41.4846 6.82769C41.3973 6.52553 41.3536 6.17978 41.3536 5.79046C41.3536 5.2733 41.4264 4.83749 41.5719 4.48303C41.7175 4.12276 41.9262 3.84965 42.1979 3.6637C42.4696 3.47195 42.7923 3.37607 43.1659 3.37607C43.5202 3.37607 43.8307 3.47195 44.0976 3.6637C44.3693 3.84965 44.5804 4.12276 44.7308 4.48303C44.8861 4.83749 44.9637 5.2733 44.9637 5.79046ZM42.0159 5.79046C42.0159 6.15654 42.0548 6.47614 42.1324 6.74924C42.2149 7.01654 42.341 7.22282 42.5109 7.36809C42.6807 7.51337 42.8966 7.586 43.1587 7.586C43.4207 7.586 43.6366 7.51337 43.8064 7.36809C43.9763 7.22282 44.1 7.01654 44.1776 6.74924C44.2601 6.47614 44.3014 6.15654 44.3014 5.79046C44.3014 5.41857 44.2601 5.10188 44.1776 4.84039C44.0952 4.57891 43.969 4.37843 43.7992 4.23897C43.6342 4.0937 43.4183 4.02107 43.1514 4.02107C42.7535 4.02107 42.4648 4.17796 42.2852 4.49174C42.1057 4.80553 42.0159 5.23843 42.0159 5.79046ZM46.6193 3.46323V5.40695H48.7372V3.46323H49.3777V8.13512H48.7372V6.05195H46.6193V8.13512H45.9788V3.46323H46.6193ZM53.3061 4.10823H52.0324V8.13512H51.3992V4.10823H50.14V3.46323H53.3061V4.10823ZM54.7152 3.46323V5.40695H56.8333V3.46323H57.4738V8.13512H56.8333V6.05195H54.7152V8.13512H54.0747V3.46323H54.7152ZM62.101 5.79046C62.101 6.17978 62.0573 6.52553 61.9699 6.82769C61.8874 7.12404 61.7661 7.37681 61.606 7.586C61.4507 7.79519 61.2591 7.95499 61.031 8.06539C60.8078 8.16999 60.5579 8.22228 60.2813 8.22228C60.0242 8.22228 59.7864 8.16999 59.568 8.06539C59.3497 7.95499 59.1604 7.79519 59.0003 7.586C58.8402 7.37681 58.714 7.12404 58.6218 6.82769C58.5345 6.52553 58.4908 6.17978 58.4908 5.79046C58.4908 5.2733 58.5636 4.83749 58.7092 4.48303C58.8547 4.12276 59.0634 3.84965 59.3351 3.6637C59.6069 3.47195 59.9295 3.37607 60.3032 3.37607C60.6574 3.37607 60.9679 3.47195 61.2348 3.6637C61.5065 3.84965 61.7176 4.12276 61.868 4.48303C62.0233 4.83749 62.101 5.2733 62.101 5.79046ZM59.1532 5.79046C59.1532 6.15654 59.192 6.47614 59.2696 6.74924C59.3521 7.01654 59.4783 7.22282 59.6481 7.36809C59.8179 7.51337 60.0339 7.586 60.2959 7.586C60.5579 7.586 60.7738 7.51337 60.9437 7.36809C61.1135 7.22282 61.2372 7.01654 61.3149 6.74924C61.3974 6.47614 61.4386 6.15654 61.4386 5.79046C61.4386 5.41857 61.3974 5.10188 61.3149 4.84039C61.2324 4.57891 61.1062 4.37843 60.9364 4.23897C60.7714 4.0937 60.5555 4.02107 60.2886 4.02107C59.8907 4.02107 59.602 4.17796 59.4225 4.49174C59.2429 4.80553 59.1532 5.23843 59.1532 5.79046ZM64.253 5.61559H62.8458C62.822 5.61559 62.8099 5.60424 62.8099 5.58154V4.63246C62.8099 4.60977 62.822 4.59841 62.8458 4.59841H64.253C64.2767 4.59841 64.2884 4.60977 64.2884 4.63246V5.58154C64.2884 5.60424 64.2767 5.61559 64.253 5.61559ZM66.8844 8.22228C66.5399 8.22228 66.2317 8.13803 65.96 7.96951C65.6931 7.801 65.4821 7.53951 65.3268 7.18505C65.1764 6.83059 65.1011 6.37735 65.1011 5.82532C65.1011 5.25005 65.1812 4.78228 65.3413 4.42201C65.5015 4.06174 65.7174 3.79735 65.9891 3.62884C66.2657 3.46032 66.5787 3.37607 66.928 3.37607C67.127 3.37607 67.3187 3.40222 67.503 3.45451C67.6874 3.501 67.8379 3.55911 67.9543 3.62884L67.7578 4.26512C67.6413 4.21282 67.5055 4.16343 67.3502 4.11695C67.1949 4.07046 67.0493 4.04722 66.9135 4.04722C66.6515 4.04722 66.4355 4.11404 66.2657 4.24769C66.0959 4.38134 65.9697 4.57891 65.8872 4.84039C65.8047 5.10188 65.7635 5.42728 65.7635 5.81661C65.7635 6.1885 65.8047 6.50519 65.8872 6.76668C65.9697 7.02816 66.0934 7.22573 66.2584 7.35938C66.4234 7.49303 66.6296 7.55985 66.8771 7.55985C67.0906 7.55985 67.2774 7.5337 67.4375 7.48141C67.6025 7.42911 67.7529 7.36519 67.8888 7.28965V7.96951C67.7578 8.05087 67.6122 8.11188 67.4521 8.15255C67.2968 8.19904 67.1076 8.22228 66.8844 8.22228ZM71.5096 4.10823H70.2359V8.13512H69.6026V4.10823H68.3435V3.46323H71.5096V4.10823ZM74.1342 3.37607C74.6146 3.37607 75.0004 3.57654 75.2915 3.97749C75.5875 4.37843 75.7355 4.98276 75.7355 5.79046C75.7355 6.31924 75.6676 6.76668 75.5317 7.13276C75.4007 7.49303 75.2139 7.76614 74.9712 7.95208C74.7335 8.13222 74.4521 8.22228 74.127 8.22228C73.928 8.22228 73.7509 8.19032 73.5956 8.12641C73.4403 8.06249 73.3069 7.98113 73.1953 7.88235C73.0885 7.77776 72.9964 7.66445 72.9187 7.54242H72.8751C72.8848 7.6412 72.8945 7.76614 72.9042 7.91722C72.9139 8.0683 72.9187 8.19904 72.9187 8.30945V10.227H72.2782V3.46323H72.8023L72.8896 4.09951H72.9187C72.9964 3.96586 73.0885 3.84384 73.1953 3.73343C73.3069 3.62303 73.4379 3.53586 73.5883 3.47195C73.7436 3.40803 73.9256 3.37607 74.1342 3.37607ZM74.0178 4.02107C73.7557 4.02107 73.5447 4.08208 73.3845 4.20411C73.2244 4.32032 73.108 4.49755 73.0352 4.7358C72.9624 4.97404 72.9236 5.2762 72.9187 5.64228V5.79046C72.9187 6.17397 72.9527 6.49938 73.0206 6.76668C73.0885 7.03397 73.2026 7.23735 73.3627 7.37681C73.5277 7.51627 73.7509 7.586 74.0323 7.586C74.2701 7.586 74.4642 7.50755 74.6146 7.35066C74.7699 7.19377 74.8839 6.98168 74.9567 6.71438C75.0343 6.44127 75.0732 6.13039 75.0732 5.78174C75.0732 5.24715 74.9858 4.82005 74.8111 4.50046C74.6413 4.18086 74.3768 4.02107 74.0178 4.02107ZM80.1477 5.79046C80.1477 6.17978 80.104 6.52553 80.0167 6.82769C79.9342 7.12404 79.8129 7.37681 79.6528 7.586C79.4975 7.79519 79.3058 7.95499 79.0778 8.06539C78.8546 8.16999 78.6047 8.22228 78.3281 8.22228C78.0709 8.22228 77.8331 8.16999 77.6148 8.06539C77.3964 7.95499 77.2072 7.79519 77.0471 7.586C76.8869 7.37681 76.7608 7.12404 76.6686 6.82769C76.5812 6.52553 76.5376 6.17978 76.5376 5.79046C76.5376 5.2733 76.6104 4.83749 76.7559 4.48303C76.9015 4.12276 77.1102 3.84965 77.3819 3.6637C77.6536 3.47195 77.9763 3.37607 78.3499 3.37607C78.7041 3.37607 79.0147 3.47195 79.2816 3.6637C79.5533 3.84965 79.7644 4.12276 79.9148 4.48303C80.0701 4.83749 80.1477 5.2733 80.1477 5.79046ZM77.1999 5.79046C77.1999 6.15654 77.2387 6.47614 77.3164 6.74924C77.3989 7.01654 77.525 7.22282 77.6949 7.36809C77.8647 7.51337 78.0806 7.586 78.3426 7.586C78.6047 7.586 78.8206 7.51337 78.9904 7.36809C79.1603 7.22282 79.284 7.01654 79.3616 6.74924C79.4441 6.47614 79.4854 6.15654 79.4854 5.79046C79.4854 5.41857 79.4441 5.10188 79.3616 4.84039C79.2791 4.57891 79.153 4.37843 78.9832 4.23897C78.8182 4.0937 78.6022 4.02107 78.3354 4.02107C77.9375 4.02107 77.6488 4.17796 77.4692 4.49174C77.2897 4.80553 77.1999 5.23843 77.1999 5.79046ZM81.7669 6.31343C81.7669 6.36573 81.7645 6.44127 81.7596 6.54005C81.7596 6.63303 81.7572 6.73472 81.7524 6.84512C81.7475 6.94972 81.7427 7.05141 81.7378 7.15019C81.733 7.24316 81.7281 7.3187 81.7233 7.37681L83.8122 3.46323H84.5983V8.13512H84.0014V5.3808C84.0014 5.28782 84.0014 5.1658 84.0014 5.01472C84.0063 4.86364 84.0111 4.71546 84.016 4.57019C84.0208 4.41911 84.0257 4.3058 84.0305 4.23026L81.9562 8.13512H81.1628V3.46323H81.7669V6.31343ZM88.533 4.10823H87.2593V8.13512H86.626V4.10823H85.3669V3.46323H88.533V4.10823ZM90.7369 3.37607C91.0717 3.37607 91.358 3.46323 91.5958 3.63755C91.8384 3.81188 92.0228 4.05884 92.149 4.37843C92.28 4.69222 92.3455 5.0612 92.3455 5.48539V5.94735H89.6743C89.684 6.47613 89.7956 6.87999 90.0091 7.15891C90.2274 7.43201 90.5307 7.56857 90.9189 7.56857C91.1664 7.56857 91.3847 7.54242 91.574 7.49012C91.768 7.43201 91.967 7.35066 92.1708 7.24607V7.91722C91.9718 8.02181 91.7753 8.09735 91.5812 8.14384C91.3871 8.19614 91.1567 8.22228 90.8898 8.22228C90.521 8.22228 90.1935 8.13222 89.9072 7.95208C89.6257 7.77195 89.405 7.50465 89.2448 7.15019C89.0896 6.78992 89.0119 6.3512 89.0119 5.83404C89.0119 5.32269 89.0823 4.88397 89.223 4.51789C89.3686 4.15181 89.5699 3.86999 89.8271 3.67242C90.0891 3.47485 90.3924 3.37607 90.7369 3.37607ZM90.7296 4.00364C90.4239 4.00364 90.1813 4.12276 90.0018 4.361C89.8271 4.59343 89.7228 4.91884 89.6888 5.33722H91.6759C91.6759 5.06992 91.6419 4.83749 91.574 4.63992C91.506 4.44235 91.4017 4.28836 91.261 4.17796C91.1251 4.06174 90.948 4.00364 90.7296 4.00364ZM96.3084 8.13512H95.6606V4.09951H94.5106C94.4621 4.83749 94.4014 5.46796 94.3286 5.99093C94.2558 6.50809 94.1636 6.92938 94.052 7.25478C93.9404 7.58019 93.807 7.81843 93.6517 7.96951C93.4964 8.12059 93.3145 8.19613 93.1058 8.19613C93.0427 8.19613 92.9797 8.19032 92.9166 8.1787C92.8584 8.17289 92.8098 8.15836 92.771 8.13512V7.55985C92.8001 7.57147 92.8317 7.58019 92.8656 7.586C92.8996 7.59181 92.9336 7.59472 92.9675 7.59472C93.0743 7.59472 93.1713 7.54242 93.2587 7.43782C93.346 7.33323 93.4237 7.17343 93.4916 6.95843C93.5644 6.74343 93.6299 6.47323 93.6881 6.14782C93.7463 5.81661 93.7973 5.42728 93.841 4.97985C93.8846 4.53242 93.9234 4.02688 93.9574 3.46323H96.3084V8.13512ZM99.3445 5.3808C99.6841 5.3808 99.9656 5.43019 100.189 5.52897C100.412 5.62776 100.579 5.77593 100.691 5.9735C100.807 6.16526 100.866 6.40931 100.866 6.70566C100.866 6.9962 100.81 7.24897 100.698 7.46397C100.592 7.67897 100.424 7.84458 100.196 7.9608C99.968 8.07701 99.6744 8.13512 99.3153 8.13512H97.5467V3.46323H98.1872V5.3808H99.3445ZM100.225 6.74924C100.225 6.46451 100.14 6.27276 99.9704 6.17397C99.8054 6.06938 99.5725 6.01708 99.2717 6.01708H98.1872V7.51627H99.2862C99.558 7.51627 99.7812 7.45816 99.9559 7.34195C100.135 7.22573 100.225 7.02816 100.225 6.74924ZM102.509 3.46323V5.40695H104.627V3.46323H105.267V8.13512H104.627V6.05195H102.509V8.13512H101.868V3.46323H102.509ZM107.98 3.38478C108.456 3.38478 108.807 3.50972 109.036 3.75958C109.264 4.00945 109.378 4.40749 109.378 4.9537V8.13512H108.912L108.788 7.47269H108.759C108.647 7.6412 108.531 7.78357 108.41 7.89978C108.293 8.01019 108.157 8.09154 108.002 8.14384C107.852 8.19614 107.667 8.22228 107.449 8.22228C107.216 8.22228 107.005 8.17289 106.816 8.07411C106.631 7.97532 106.486 7.82424 106.379 7.62086C106.272 7.41168 106.219 7.15019 106.219 6.83641C106.219 6.37154 106.372 6.01418 106.677 5.76431C106.983 5.50864 107.454 5.36918 108.089 5.34593L108.752 5.31978V5.04086C108.752 4.65154 108.681 4.38134 108.541 4.23026C108.4 4.07918 108.201 4.00364 107.944 4.00364C107.74 4.00364 107.546 4.04141 107.361 4.11695C107.177 4.18668 107.005 4.26803 106.845 4.361L106.648 3.78573C106.818 3.67532 107.019 3.58235 107.252 3.50681C107.485 3.42546 107.728 3.38478 107.98 3.38478ZM108.169 5.87762C107.684 5.90086 107.347 5.99384 107.158 6.15654C106.973 6.31924 106.881 6.54877 106.881 6.84512C106.881 7.10661 106.947 7.29837 107.078 7.42039C107.213 7.54242 107.386 7.60343 107.594 7.60343C107.924 7.60343 108.198 7.49593 108.417 7.28093C108.635 7.06012 108.744 6.72309 108.744 6.26985V5.85147L108.169 5.87762ZM110.823 8.13512H110.08L111.194 6.17397C111.043 6.12749 110.898 6.05485 110.757 5.95607C110.616 5.85147 110.502 5.70911 110.415 5.52897C110.328 5.34303 110.284 5.1135 110.284 4.84039C110.284 4.39296 110.41 4.05303 110.662 3.82059C110.915 3.58235 111.25 3.46323 111.667 3.46323H113.414V8.13512H112.773V6.27857H111.827L110.823 8.13512ZM110.903 4.84911C110.903 5.11641 110.985 5.31688 111.15 5.45053C111.32 5.57836 111.555 5.64228 111.856 5.64228H112.773V4.09951H111.732C111.436 4.09951 111.223 4.16924 111.092 4.3087C110.966 4.44816 110.903 4.6283 110.903 4.84911ZM81.4088 13.9227H82.1076L80.4408 16.1715L82.2459 18.5946H81.5034L79.7421 16.2238V18.5946H79.1015V13.9227H79.7421V16.1889L81.4088 13.9227ZM86.2039 16.2499C86.2039 16.6392 86.1602 16.985 86.0729 17.2871C85.9904 17.5835 85.8691 17.8363 85.7089 18.0455C85.5537 18.2546 85.362 18.4144 85.134 18.5249C84.9107 18.6294 84.6608 18.6817 84.3843 18.6817C84.1271 18.6817 83.8893 18.6294 83.671 18.5249C83.4526 18.4144 83.2634 18.2546 83.1033 18.0455C82.9431 17.8363 82.817 17.5835 82.7248 17.2871C82.6374 16.985 82.5938 16.6392 82.5938 16.2499C82.5938 15.7328 82.6665 15.2969 82.8121 14.9425C82.9577 14.5822 83.1663 14.3091 83.4381 14.1232C83.7098 13.9314 84.0325 13.8355 84.4061 13.8355C84.7603 13.8355 85.0709 13.9314 85.3377 14.1232C85.6095 14.3091 85.8206 14.5822 85.971 14.9425C86.1263 15.2969 86.2039 15.7328 86.2039 16.2499ZM83.2561 16.2499C83.2561 16.616 83.2949 16.9356 83.3726 17.2087C83.4551 17.476 83.5812 17.6823 83.751 17.8276C83.9209 17.9728 84.1368 18.0455 84.3988 18.0455C84.6608 18.0455 84.8768 17.9728 85.0466 17.8276C85.2164 17.6823 85.3402 17.476 85.4178 17.2087C85.5003 16.9356 85.5415 16.616 85.5415 16.2499C85.5415 15.878 85.5003 15.5613 85.4178 15.2999C85.3353 15.0384 85.2092 14.8379 85.0393 14.6984C84.8744 14.5532 84.6584 14.4805 84.3915 14.4805C83.9937 14.4805 83.7049 14.6374 83.5254 14.9512C83.3459 15.265 83.2561 15.6979 83.2561 16.2499ZM91.4041 13.9227V18.5946H90.8291V15.6136C90.8291 15.4916 90.8315 15.3638 90.8364 15.2301C90.8461 15.0965 90.8558 14.9657 90.8655 14.8379H90.8437L89.5699 18.5946H89.0313L87.794 14.8379H87.7722C87.7819 14.9657 87.7867 15.0965 87.7867 15.2301C87.7916 15.3638 87.794 15.5003 87.794 15.6398V18.5946H87.219V13.9227H88.0706L89.3006 17.6794L90.5525 13.9227H91.4041ZM95.9464 13.9227V18.5946H95.3059V14.5764H93.2897V18.5946H92.6492V13.9227H95.9464ZM98.6685 13.8442C99.1441 13.8442 99.4959 13.9692 99.7239 14.219C99.952 14.4689 100.066 14.8669 100.066 15.4132V18.5946H99.6002L99.4764 17.9321H99.4473C99.3357 18.1007 99.2193 18.243 99.098 18.3592C98.9815 18.4696 98.8456 18.551 98.6904 18.6033C98.5399 18.6556 98.3556 18.6817 98.1372 18.6817C97.9043 18.6817 97.6932 18.6324 97.504 18.5336C97.3196 18.4348 97.174 18.2837 97.0673 18.0803C96.9605 17.8711 96.9071 17.6096 96.9071 17.2959C96.9071 16.831 97.06 16.4736 97.3657 16.2238C97.6714 15.9681 98.1421 15.8286 98.7777 15.8054L99.44 15.7792V15.5003C99.44 15.111 99.3697 14.8408 99.229 14.6897C99.0883 14.5386 98.8893 14.4631 98.6321 14.4631C98.4283 14.4631 98.2342 14.5009 98.0499 14.5764C97.8655 14.6461 97.6932 14.7275 97.5331 14.8205L97.3366 14.2452C97.5064 14.1348 97.7078 14.0418 97.9407 13.9663C98.1736 13.8849 98.4162 13.8442 98.6685 13.8442ZM98.8578 16.3371C98.3725 16.3603 98.0353 16.4533 97.8461 16.616C97.6617 16.7787 97.5695 17.0082 97.5695 17.3046C97.5695 17.5661 97.635 17.7578 97.766 17.8799C97.9019 18.0019 98.0741 18.0629 98.2828 18.0629C98.6127 18.0629 98.8869 17.9554 99.1052 17.7404C99.3236 17.5196 99.4328 17.1826 99.4328 16.7293V16.3109L98.8578 16.3371ZM101.912 13.9227V15.8664H104.03V13.9227H104.67V18.5946H104.03V16.5114H101.912V18.5946H101.271V13.9227H101.912ZM106.509 16.7729C106.509 16.8252 106.507 16.9007 106.502 16.9995C106.502 17.0925 106.5 17.1942 106.495 17.3046C106.49 17.4092 106.485 17.5109 106.48 17.6096C106.475 17.7026 106.471 17.7782 106.466 17.8363L108.555 13.9227H109.341V18.5946H108.744V15.8403C108.744 15.7473 108.744 15.6253 108.744 15.4742C108.749 15.3231 108.754 15.1749 108.758 15.0296C108.763 14.8786 108.768 14.7653 108.773 14.6897L106.699 18.5946H105.905V13.9227H106.509V16.7729ZM110.823 18.5946H110.08L111.194 16.6334C111.043 16.5869 110.898 16.5143 110.757 16.4155C110.616 16.3109 110.502 16.1686 110.415 15.9884C110.328 15.8025 110.284 15.573 110.284 15.2999C110.284 14.8524 110.41 14.5125 110.662 14.2801C110.915 14.0418 111.25 13.9227 111.667 13.9227H113.414V18.5946H112.773V16.738H111.827L110.823 18.5946ZM110.903 15.3086C110.903 15.5759 110.985 15.7763 111.15 15.91C111.32 16.0378 111.555 16.1017 111.856 16.1017H112.773V14.559H111.732C111.436 14.559 111.223 14.6287 111.092 14.7682C110.966 14.9076 110.903 15.0878 110.903 15.3086Z" fill="black"/>
<path d="M17.0843 1.55501C16.4254 3.09068 15.6841 4.78146 13.3779 10.0399C12.8956 11.1413 12.0955 12.9561 11.613 14.073C11.1189 15.1744 10.2247 17.2374 9.61282 18.649C8.9892 20.0606 8.11855 22.0771 7.64788 23.1163C7.18899 24.1712 6.8125 25.0709 6.8125 25.1018C6.8125 25.1329 8.10676 25.1639 9.68342 25.1639H12.5543L13.5309 22.9457C14.0604 21.7358 15.2487 19.0367 16.1665 16.9427C17.0725 14.8486 18.4727 11.6532 19.2727 9.83829C20.5435 6.95311 20.7082 6.47226 20.6023 6.16202C20.4494 5.72768 18.002 0.158954 17.8961 0.00383653C17.8491 -0.0582103 17.4843 0.639817 17.0843 1.55501Z" fill="black"/>
<path d="M19.8375 10.7846C19.0845 12.5064 17.2608 16.679 15.7783 20.0451L13.0956 26.1722L9.68346 26.2188L6.27131 26.2498L4.777 29.6624C3.95338 31.5238 3.28271 33.106 3.28271 33.1525C3.28271 33.1991 4.76524 33.2301 6.5772 33.2301C8.85983 33.2301 9.87169 33.2766 9.87169 33.4007C9.87169 33.4938 9.4834 34.4555 9.00103 35.5258C7.33023 39.3262 6.81254 40.5361 6.81254 40.5981C6.81254 40.6447 8.1774 40.6757 9.84815 40.6757H12.8721L14.2487 37.5268C15.0017 35.805 16.2724 32.8888 17.0725 31.0584C17.8844 29.228 19.5669 25.3811 20.8142 22.5269C22.0613 19.6728 23.3556 16.741 23.6733 16.012C23.991 15.2829 24.2616 14.616 24.2616 14.5384C24.2616 14.3833 21.4731 7.99241 21.2965 7.75974C21.2612 7.69774 20.6024 9.04725 19.8375 10.7846Z" fill="#FF0000"/>
<path d="M2.61206 34.6571C2.565 34.7657 1.95317 36.1462 1.25897 37.7284L0 40.5981L2.78856 40.6446C4.31814 40.6602 5.62418 40.6446 5.69478 40.6136C5.76538 40.5826 6.29482 39.4813 6.87137 38.1782C7.43613 36.8598 8.03622 35.4948 8.18917 35.1225L8.48331 34.4709H5.60065C3.41216 34.4709 2.68266 34.5175 2.61206 34.6571Z" fill="black"/>
</g>
<defs>
<clipPath id="clip0_25_38">
<rect width="115" height="43" fill="white"/>
</clipPath>
</defs>
</svg>
