<svg width="50" height="50" viewBox="0 0 50 50" fill="none" xmlns="http://www.w3.org/2000/svg">
<path d="M32.5465 42.6258C32.5465 39.699 30.1705 37.3274 27.2382 37.3274H23.2141L18.5609 44.8054L16.944 41.9408L19.8035 37.3274H16.2733H12.7431L15.6026 41.9408L13.9857 44.8054L9.33243 37.3274H5.30831C2.376 37.3274 0 39.699 0 42.6258V50H32.5517V42.6258H32.5465Z" fill="black"/>
<path d="M16.1954 34.385C21.5505 34.4266 25.9334 29.9999 25.9334 24.6548V16.3933C25.9334 15.6772 25.3511 15.0959 24.6336 15.0959H16.3566C11.0015 15.0959 6.56661 19.4706 6.6082 24.8157C6.64459 30.083 10.9183 34.3487 16.1954 34.385Z" fill="black"/>
<path d="M41.6553 11.562H40.2827V14.7172H41.6553V11.562Z" fill="black"/>
<path d="M37.9484 6.07153H36.4563V9.2267H37.9484V6.07153Z" fill="black"/>
<path d="M30.2328 25.0026L33.9242 22.2989C34.3713 21.972 34.9068 21.7955 35.4631 21.7955H47.4003C48.8353 21.7955 49.9999 20.6331 49.9999 19.2008V2.59471C49.9999 1.16243 48.8353 0 47.4003 0H30.7631C29.3282 0 28.1636 1.16243 28.1636 2.59471V21.7955V23.9543C28.1636 25.0182 29.375 25.6305 30.2328 25.0026ZM34.1166 4.904C34.1166 4.26051 34.6417 3.73638 35.2864 3.73638H37.9483V2.25739C37.9483 1.61391 38.4734 1.08978 39.1181 1.08978C39.7628 1.08978 40.2879 1.61391 40.2879 2.25739V3.73638H42.0972C42.7419 3.73638 43.267 4.26051 43.267 4.904C43.267 5.54748 42.7419 6.07161 42.092 6.07161H40.2827V9.22678H42.8251C43.4698 9.22678 43.9949 9.75091 43.9949 10.3944V15.8848C43.9949 16.5283 43.4698 17.0524 42.8251 17.0524H40.2827V18.5314C40.2827 19.1749 39.7576 19.699 39.1129 19.699C38.4683 19.699 37.9431 19.1749 37.9431 18.5314V17.0524H35.8063C35.1616 17.0524 34.6365 16.5283 34.6365 15.8848C34.6365 15.2413 35.1616 14.7172 35.8063 14.7172H37.9431V11.562H35.2864C34.6417 11.562 34.1166 11.0379 34.1166 10.3944V4.904Z" fill="black"/>
</svg>
