<svg width="50" height="50" viewBox="0 0 50 50" fill="none" xmlns="http://www.w3.org/2000/svg">
<path d="M15.6251 31.5369C13.1985 31.5369 11.2319 33.5027 11.2319 35.9295C11.2319 38.3565 13.1985 40.3223 15.6251 40.3223C18.0525 40.3223 20.0186 38.3565 20.0186 35.9295C20.0186 33.5027 18.0525 31.5369 15.6251 31.5369ZM15.6251 37.8392C14.5702 37.8392 13.7154 36.9844 13.7154 35.9295C13.7154 34.8741 14.5702 34.0198 15.6251 34.0198C16.68 34.0198 17.5354 34.8741 17.5354 35.9295C17.5354 36.9844 16.68 37.8392 15.6251 37.8392Z" fill="black"/>
<path d="M38.7907 31.5369C36.3641 31.5369 34.3977 33.5027 34.3977 35.9295C34.3977 38.3565 36.3641 40.3223 38.7907 40.3223C41.2183 40.3223 43.1842 38.3565 43.1842 35.9295C43.1842 33.5027 41.2183 31.5369 38.7907 31.5369ZM38.7907 37.8392C37.7359 37.8392 36.8812 36.9844 36.8812 35.9295C36.8812 34.8741 37.7359 34.0198 38.7907 34.0198C39.8458 34.0198 40.7012 34.8741 40.7012 35.9295C40.7012 36.9844 39.8458 37.8392 38.7907 37.8392Z" fill="black"/>
<path d="M20.5674 18.039C20.5674 18.6546 20.0637 19.1582 19.4483 19.1582H4.00452C3.38896 19.1582 2.8855 18.6546 2.8855 18.039V17.3676C2.8855 16.7521 3.38908 16.2485 4.00452 16.2485H19.4483C20.0638 16.2485 20.5674 16.7521 20.5674 17.3676V18.039Z" fill="black"/>
<path d="M47.3991 24.5913C45.7883 24.1726 44.8666 23.9093 44.234 22.6877L42.119 18.4055C41.4863 17.1839 39.8429 16.1844 38.4676 16.1844H35.5748C35.5748 16.1844 35.1856 16.1925 35.1856 15.8009C35.1856 14.903 35.1856 12.2094 35.1856 12.2094C35.1856 10.8172 34.3977 9.67798 32.7218 9.67798H9.14555C6.74612 9.67798 5.60693 10.8173 5.60693 12.2094V14.4601C5.60693 14.4601 5.60693 15.1295 6.25482 15.1295C9.55314 15.1295 19.4482 15.1295 19.4482 15.1295C20.6824 15.1295 21.6865 16.1335 21.6865 17.3677V18.0392C21.6865 19.2734 20.6824 20.2774 19.4482 20.2774H6.25482C6.25482 20.2774 5.60693 20.2235 5.60693 20.9229C5.60693 21.2703 5.60693 21.5034 5.60693 21.6969C5.60693 22.3125 6.45063 22.3121 6.45063 22.3121H15.3318C16.566 22.3121 17.5701 23.3162 17.5701 24.5503V25.2218C17.5701 26.456 16.566 27.4599 15.3318 27.4599H6.59075C6.59075 27.4599 5.60693 27.4418 5.60693 28.2251C5.60693 29.5848 5.60693 33.6636 5.60693 33.6636C5.60693 35.0558 6.74612 36.1951 8.13838 36.1951C8.13838 36.1951 9.1871 36.1951 9.53667 36.1951C9.85379 36.1951 9.9005 36.0184 9.9005 35.9297C9.9005 32.7733 12.4687 30.2058 15.6252 30.2058C18.7819 30.2058 21.35 32.7736 21.35 35.9297C21.35 36.0188 21.3247 36.1951 21.5672 36.1951C24.3389 36.1951 32.8516 36.1951 32.8516 36.1951C33.0753 36.1951 33.0662 36.0065 33.0662 35.9297C33.0662 32.7733 35.6342 30.2058 38.7908 30.2058C41.9474 30.2058 44.5155 32.7736 44.5155 35.9297C44.5155 36.0188 44.5133 36.1951 44.6533 36.1951C45.9243 36.1951 47.4983 36.1951 47.4983 36.1951C48.8744 36.1951 49.9999 35.0695 49.9999 33.6936V28.9412C50 24.9389 48.7363 24.9389 47.3991 24.5913ZM42.639 24.3687C42.639 24.3687 37.3267 24.3687 35.5187 24.3687C35.2246 24.3687 35.1855 24.0823 35.1855 24.0823V18.151C35.1855 18.151 35.1689 17.9233 35.5466 17.9233C36.0546 17.9233 37.5783 17.9233 37.5783 17.9233C38.8024 17.9233 40.2646 18.8127 40.8274 19.8996L42.7095 23.71C42.7888 23.8634 42.8735 23.9996 42.9642 24.1217C43.0311 24.2112 42.919 24.3687 42.639 24.3687Z" fill="black"/>
<path d="M16.4508 25.2217C16.4508 25.8372 15.9472 26.3408 15.3318 26.3408H1.11902C0.503463 26.3408 0 25.8372 0 25.2217V24.5502C0 23.9347 0.503585 23.4312 1.11902 23.4312H15.3318C15.9473 23.4312 16.4508 23.9347 16.4508 24.5502V25.2217Z" fill="black"/>
</svg>
