<svg width="22" height="22" viewBox="0 0 22 22" fill="none" xmlns="http://www.w3.org/2000/svg">
<path d="M15.2092 22C15.05 22 14.8895 21.9847 14.7297 21.9535C14.7253 21.9529 14.7209 21.9522 14.7166 21.9514C14.4853 21.9117 9.00339 20.9322 4.88168 16.8181C1.55904 13.5016 0.438268 9.24456 0.107709 7.5421C0.0460572 7.33959 0.0106402 7.12846 0.00255114 6.91395C3.69735e-05 6.89005 -0.000618897 6.86616 0.000583531 6.84237C-0.0053193 6.17363 0.250689 5.54722 0.72368 5.07509L2.12484 3.6765C2.20682 3.59467 2.3181 3.54863 2.43397 3.54863C2.54984 3.54863 2.66112 3.59467 2.7431 3.6765L7.27725 8.20244C7.4481 8.37287 7.4481 8.64925 7.27725 8.81957L5.87631 10.2182C5.84056 10.2538 5.8046 10.2877 5.76787 10.3202C5.11342 10.9002 4.98651 11.916 5.47338 12.6824C5.94113 13.4186 6.47031 14.0832 7.04605 14.6579C7.72805 15.3385 8.53728 15.9552 9.45102 16.4904C10.1984 16.9282 11.1592 16.7879 11.788 16.1492L11.8032 16.134L13.2043 14.7355C13.3752 14.5649 13.6519 14.5649 13.8226 14.7355L18.3568 19.2613C18.5276 19.4317 18.5276 19.7081 18.3568 19.8784L16.9557 21.277C16.4865 21.7454 15.8587 22 15.2092 22ZM14.8436 21.0874C14.8556 21.0889 14.8676 21.0908 14.8795 21.0933C15.4105 21.2033 15.9555 21.0411 16.3374 20.66L17.4292 19.5701L13.5135 15.6615L12.409 16.764C11.5015 17.6857 10.102 17.884 9.00852 17.2436C8.03062 16.6708 7.16236 16.0086 6.42789 15.2754C5.80678 14.6554 5.23716 13.9405 4.73509 13.1501C4.02118 12.0261 4.21586 10.5288 5.18819 9.66693C5.21289 9.64533 5.23607 9.62329 5.2588 9.60059L6.35017 8.51123L2.43408 4.60231L1.34206 5.69223C1.03249 6.00134 0.866769 6.41334 0.875296 6.85284C0.875624 6.85764 0.875842 6.86234 0.875952 6.86714C0.880324 7.01727 0.905029 7.16447 0.949409 7.30446C0.954437 7.32049 0.958591 7.33697 0.961761 7.35355C1.27122 8.96066 2.33297 13.0397 5.50006 16.2011C9.30213 19.9962 14.4693 21.0177 14.8436 21.0874ZM21.5628 12.1052C21.3213 12.1052 21.1255 11.9098 21.1255 11.6688C21.1255 5.71601 16.2736 0.87289 10.3098 0.87289C10.0683 0.87289 9.87252 0.677472 9.87252 0.436445C9.87252 0.195418 10.0683 0 10.3098 0C16.7559 0 22 5.23461 22 11.6688C22 11.9098 21.8042 12.1052 21.5628 12.1052ZM18.8496 12.1052C18.6082 12.1052 18.4124 11.9098 18.4124 11.6688C18.4124 7.17058 14.7462 3.51109 10.2398 3.51109C9.99834 3.51109 9.80256 3.31567 9.80256 3.07465C9.80256 2.83362 9.99834 2.6382 10.2398 2.6382C15.2284 2.6382 19.2869 6.68929 19.2869 11.6688C19.2869 11.9098 19.0911 12.1052 18.8496 12.1052ZM16.1433 12.1052C15.9018 12.1052 15.7061 11.9098 15.7061 11.6688C15.7061 8.66027 13.2539 6.21258 10.2398 6.21258C9.99834 6.21258 9.80256 6.01716 9.80256 5.77613C9.80256 5.53511 9.99834 5.33969 10.2398 5.33969C13.736 5.33969 16.5805 8.17887 16.5805 11.6688C16.5805 11.9098 16.3848 12.1052 16.1433 12.1052Z" fill="white"/>
</svg>
