<svg width="97" height="136" viewBox="0 0 97 136" fill="none" xmlns="http://www.w3.org/2000/svg">
<path d="M28.6952 5.19157C31.3296 10.3186 34.2932 15.9634 43.5134 33.5194C45.4421 37.1964 48.6409 43.2555 50.5697 46.9842C52.5454 50.6612 56.1206 57.5489 58.5668 62.2616C61.06 66.9743 64.5411 73.7067 66.4227 77.1765C68.2574 80.698 69.7627 83.7017 69.7627 83.8053C69.7627 83.9089 64.5881 84.0125 58.2845 84.0125H46.8063L42.9019 76.6068C40.785 72.5674 36.0338 63.5563 32.3645 56.565C28.7423 49.5736 23.1443 38.9054 19.9455 32.8462C14.865 23.2137 14.2064 21.6083 14.6298 20.5725C15.2413 19.1225 25.026 0.530685 25.4494 0.0128098C25.6375 -0.194344 27.0958 2.1361 28.6952 5.19157Z" fill="white"/>
<path d="M17.6877 36.0053C20.6984 41.7537 27.9899 55.6846 33.9171 66.9225L44.6427 87.3787L58.2848 87.534L71.9269 87.6376L77.9012 99.0309C81.1941 105.245 83.8755 110.528 83.8755 110.683C83.8755 110.839 77.9482 110.942 70.7038 110.942C61.5777 110.942 57.5321 111.097 57.5321 111.512C57.5321 111.822 59.0845 115.033 61.0132 118.607C67.6931 131.295 69.763 135.334 69.763 135.541C69.763 135.697 64.3061 135.8 57.6262 135.8H45.5365L40.0326 125.287C37.0219 119.539 31.9414 109.803 28.7426 103.692C25.4967 97.5809 18.7697 84.7375 13.7833 75.2086C8.79685 65.6796 3.62226 55.8918 2.35213 53.4577C1.08201 51.0237 4.57764e-05 48.7968 4.57764e-05 48.5379C4.57764e-05 48.02 11.1489 26.6835 11.8546 25.9067C11.9957 25.6995 14.63 30.2051 17.6877 36.0053Z" fill="black"/>
<path d="M86.5567 115.707C86.7449 116.069 89.1911 120.678 91.9665 125.96L97 135.541L85.8511 135.697C79.7357 135.748 74.514 135.697 74.2318 135.593C73.9495 135.489 71.8327 131.812 69.5276 127.462C67.2696 123.06 64.8705 118.503 64.2589 117.26L63.0829 115.085H74.6081C83.3579 115.085 86.2745 115.24 86.5567 115.707Z" fill="white"/>
</svg>
