<svg width="17" height="23" viewBox="0 0 17 23" fill="none" xmlns="http://www.w3.org/2000/svg">
<path d="M15.4818 0.0833435H1.51825C0.67975 0.0833435 0 0.733539 0 1.53558V20.6311C0 21.4331 0.67975 22.0833 1.51825 22.0833H15.4818C16.3203 22.0833 17 21.4331 17 20.6311V1.53558C17 0.733539 16.3203 0.0833435 15.4818 0.0833435ZM2.4102 16.5169V14.451C2.4102 14.2859 2.55005 14.1522 2.7226 14.1522H4.8824C5.05495 14.1522 5.1948 14.2859 5.1948 14.451V16.5169C5.1948 16.6819 5.05495 16.8157 4.8824 16.8157H2.7226C2.55005 16.8157 2.4102 16.6819 2.4102 16.5169ZM2.4102 12.356V10.2901C2.4102 10.1251 2.55005 9.99128 2.7226 9.99128H4.8824C5.05495 9.99128 5.1948 10.1251 5.1948 10.2901V12.356C5.1948 12.521 5.05495 12.6548 4.8824 12.6548H2.7226C2.55005 12.6548 2.4102 12.521 2.4102 12.356ZM12.4445 20.2181H4.55545C4.00315 20.2181 3.55545 19.7899 3.55545 19.2616C3.55545 18.7333 4.00315 18.3051 4.55545 18.3051H12.4445C12.9969 18.3051 13.4445 18.7333 13.4445 19.2616C13.4445 19.7899 12.9969 20.2181 12.4445 20.2181ZM7.4201 14.1521H9.5799C9.75245 14.1521 9.8923 14.2859 9.8923 14.4509V16.5168C9.8923 16.6819 9.75245 16.8156 9.5799 16.8156H7.4201C7.24755 16.8156 7.1077 16.6819 7.1077 16.5168V14.4509C7.1077 14.2859 7.24755 14.1521 7.4201 14.1521ZM7.1077 12.356V10.2901C7.1077 10.1251 7.24755 9.99128 7.4201 9.99128H9.5799C9.75245 9.99128 9.8923 10.1251 9.8923 10.2901V12.356C9.8923 12.521 9.75245 12.6548 9.5799 12.6548H7.4201C7.24755 12.6548 7.1077 12.521 7.1077 12.356ZM14.2774 16.8157H12.1176C11.945 16.8157 11.8052 16.6819 11.8052 16.5169V14.451C11.8052 14.2859 11.945 14.1522 12.1176 14.1522H14.2774C14.45 14.1522 14.5898 14.2859 14.5898 14.451V16.5169C14.5898 16.6819 14.45 16.8157 14.2774 16.8157ZM14.2774 12.6548H12.1176C11.945 12.6548 11.8052 12.521 11.8052 12.356V10.2901C11.8052 10.1251 11.945 9.99128 12.1176 9.99128H14.2774C14.45 9.99128 14.5898 10.1251 14.5898 10.2901V12.356C14.5898 12.521 14.45 12.6548 14.2774 12.6548ZM14.7 7.2399C14.7 7.80419 14.2218 8.2616 13.6319 8.2616H3.3682C2.77825 8.2616 2.3 7.80415 2.3 7.2399V3.06592C2.3 2.50167 2.77825 2.04421 3.3682 2.04421H13.6319C14.2218 2.04421 14.7 2.50167 14.7 3.06592V7.2399Z" fill="white"/>
</svg>
