<svg width="38" height="24" viewBox="0 0 38 24" fill="none" xmlns="http://www.w3.org/2000/svg">
<path d="M13.6287 12.3228C13.6287 15.2752 15.8764 17.5484 18.8287 17.5484C21.7811 17.5484 24.0287 15.2752 24.0287 12.3228C24.0287 9.37041 21.7811 7.12279 18.8287 7.12279C15.8764 7.12279 13.6287 9.37041 13.6287 12.3228ZM21.1144 23.3895C27.4953 21.9609 37.4001 13.4847 37.4001 13.4847C37.4001 13.4847 30.0668 2.05612 20.2572 0.818024C19.6858 0.722785 17.7811 0.722786 17.4001 0.722786C7.87629 1.67517 0.257242 13.7704 0.257242 13.7704C0.257242 13.7704 8.54296 21.9609 16.4477 23.199C17.3049 23.5799 20.162 23.5799 21.1144 23.3895ZM9.4001 12.2466C9.4001 7.29422 13.5906 3.29421 18.8287 3.29421C24.0668 3.29421 28.2572 7.29422 28.2572 12.2466C28.2572 17.199 24.0668 21.1037 18.8287 21.1037C13.5906 21.1037 9.4001 17.1037 9.4001 12.2466Z" fill="white"/>
</svg>
