<svg width="20" height="20" viewBox="0 0 20 20" fill="none" xmlns="http://www.w3.org/2000/svg">
<path d="M0 20L1.40069 15.0306C0.499964 13.5021 0.0257258 11.7629 0.0257258 9.97634C0.0257258 4.47537 4.50595 0 10.0129 0C15.5198 0 20 4.47537 20 9.97634C20 15.4773 15.5198 19.9527 10.0129 19.9527C8.29697 19.9527 6.61674 19.5139 5.13034 18.6808L0 20ZM5.39262 16.8658L5.69832 17.0523C6.99429 17.8426 8.48627 18.2604 10.0129 18.2604C14.5857 18.2604 18.3058 14.5442 18.3058 9.97634C18.3058 5.40852 14.5857 1.69232 10.0129 1.69232C5.44012 1.69232 1.71988 5.40852 1.71988 9.97634C1.71988 11.5679 2.17272 13.1135 3.02934 14.446L3.23521 14.7662L2.4286 17.628L5.39262 16.8658Z" fill="#61CE70"/>
<path d="M7.20726 5.33303L6.55921 5.29774C6.35566 5.28665 6.156 5.35459 6.00215 5.4881C5.68798 5.76062 5.18563 6.2875 5.03133 6.97408C4.80124 7.99781 5.15683 9.25137 6.07713 10.5049C6.99743 11.7585 8.71248 13.7642 11.7452 14.6208C12.7225 14.8969 13.4913 14.7108 14.0844 14.3318C14.5542 14.0316 14.878 13.5498 14.9947 13.0051L15.0982 12.5224C15.1311 12.3689 15.0531 12.2132 14.9104 12.1476L12.7202 11.1391C12.578 11.0737 12.4094 11.1151 12.3138 11.2388L11.454 12.3523C11.3891 12.4364 11.2779 12.4697 11.1775 12.4345C10.5887 12.2278 8.61629 11.4026 7.53404 9.3202C7.48711 9.22988 7.49878 9.12025 7.56535 9.04322L8.38708 8.09364C8.47103 7.99668 8.49224 7.86035 8.44179 7.74252L7.49771 5.53617C7.44745 5.41871 7.33482 5.33999 7.20726 5.33303Z" fill="#61CE70"/>
</svg>
