<svg width="77" height="103" viewBox="0 0 77 103" fill="none" xmlns="http://www.w3.org/2000/svg">
<path d="M54.2213 3.93765C52.1301 7.8263 49.7774 12.1077 42.4583 25.4234C40.9274 28.2123 38.3881 32.8079 36.857 35.636C35.2887 38.4249 32.4506 43.6491 30.5088 47.2235C28.5296 50.7979 25.7664 55.9042 24.2726 58.5358C22.8162 61.2069 21.6213 63.4851 21.6213 63.5636C21.6213 63.6421 25.729 63.7207 30.7329 63.7207H39.8445L42.9439 58.1038C44.6241 55.04 48.3958 48.2054 51.3085 42.9028C54.1838 37.6 58.6277 29.5085 61.1668 24.9128C65.1999 17.6068 65.7226 16.3892 65.3866 15.6036C64.9012 14.5038 57.1339 0.402508 56.7978 0.00971496C56.6485 -0.147402 55.4908 1.62016 54.2213 3.93765Z" fill="black"/>
<path d="M62.9592 27.3088C60.5694 31.6688 54.7814 42.2349 50.0762 50.7585L41.5622 66.2738L30.7329 66.3917L19.9036 66.4703L15.1611 75.1117C12.5471 79.8253 10.4186 83.8317 10.4186 83.9495C10.4186 84.0674 15.1237 84.146 20.8744 84.146C28.1189 84.146 31.3302 84.2637 31.3302 84.578C31.3302 84.8137 30.0979 87.2489 28.567 89.9593C23.2643 99.5827 21.6213 102.646 21.6213 102.804C21.6213 102.921 25.953 103 31.2556 103H40.8527L45.2217 95.0263C47.6116 90.6663 51.6445 83.2818 54.1838 78.6468C56.7604 74.0118 62.1004 64.2706 66.0588 57.0431C70.017 49.8158 74.1247 42.392 75.1329 40.5459C76.1411 38.6997 77 37.0108 77 36.8144C77 36.4215 68.1499 20.2384 67.5897 19.6492C67.4777 19.4922 65.3866 22.9095 62.9592 27.3088Z" fill="#FF0000"/>
<path d="M8.29 87.7598C8.14064 88.0346 6.19884 91.5305 3.99564 95.537L0 102.804L8.85014 102.922C13.7047 102.961 17.8497 102.922 18.0737 102.843C18.2978 102.764 19.9781 99.9756 21.8079 96.6761C23.6003 93.3374 25.5049 89.8808 25.9903 88.9381L26.9238 87.2883H17.775C10.8293 87.2883 8.51405 87.4062 8.29 87.7598Z" fill="black"/>
</svg>
