<svg width="50" height="50" viewBox="0 0 50 50" fill="none" xmlns="http://www.w3.org/2000/svg">
<path d="M26.1959 20.5063C24.8983 20.5063 23.8428 21.5619 23.8428 22.8591C23.8428 24.1567 24.8983 25.2119 26.1959 25.2119C27.4936 25.2119 28.5491 24.1567 28.5491 22.8591C28.5491 21.5619 27.4936 20.5063 26.1959 20.5063Z" fill="black"/>
<path d="M48.2619 6.83618H9.15675C8.20992 6.83618 7.42182 7.60959 7.42182 8.55682V14.258H1.71667C0.769048 14.258 0 15.0267 0 15.9751V41.4469C0 42.3953 0.769048 43.164 1.71667 43.164H40.8611C41.8095 43.164 42.5782 42.3949 42.5782 41.4469V35.7421H48.2619C49.2083 35.7421 50 34.9747 50 34.0286V8.55642C50 7.60959 49.2083 6.83618 48.2619 6.83618ZM39.4532 32.0985L33.0873 25.5862C33.0488 25.5862 33.006 25.5909 32.9591 25.5723C32.8655 25.5338 32.7595 25.5699 32.6659 25.6084C32.6187 25.6271 32.575 25.6739 32.5369 25.712L26.5528 31.7056L17.4464 22.6044C17.2937 22.4517 17.0468 22.454 16.894 22.6068L10.9266 28.5755L8.07817 25.7278C7.9254 25.5751 7.67897 25.5751 7.52619 25.7282L3.125 30.131V17.383H39.4532V32.0985ZM46.875 32.6171H42.5782V15.9751C42.5782 15.0267 41.8091 14.258 40.8611 14.258H10.5468V9.96118H46.875V32.6171Z" fill="black"/>
</svg>
